<svg width="28" height="23" viewBox="0 0 28 23" fill="none" xmlns="http://www.w3.org/2000/svg">
<path d="M19.1257 17.5496C16.832 19.0789 13.9461 19.7999 11.0553 19.5659C8.16457 19.3318 5.4863 18.1603 3.56568 16.2898C1.64507 14.4192 0.626479 11.9903 0.717255 9.49741C0.808031 7.00452 2.00135 4.63503 4.0543 2.87126C6.10761 1.10781 8.86609 0.0827728 11.7682 0.00479763C14.6704 -0.0731775 17.4981 0.801773 19.6757 2.45155C21.8533 4.10132 23.2171 6.40192 23.4896 8.88503C23.7621 11.3681 22.9227 13.8471 21.1423 15.8174L26.9259 20.7853C27.1137 20.9351 27.251 21.1257 27.3233 21.3369C27.3956 21.5481 27.4003 21.7722 27.3368 21.9855C27.2733 22.1988 27.144 22.3934 26.9625 22.5489C26.7811 22.7044 26.5541 22.8149 26.3056 22.8689C26.0576 22.9235 25.797 22.9197 25.5513 22.8579C25.3056 22.7961 25.0838 22.6785 24.9092 22.5176L19.1257 17.5496ZM20.6857 9.80352C20.7027 8.82889 20.4938 7.86111 20.0713 6.95645C19.6488 6.0518 19.0211 5.22835 18.2247 4.53399C17.4283 3.83963 16.4791 3.28823 15.4324 2.91186C14.3856 2.53549 13.2622 2.34167 12.1275 2.34167C10.9927 2.34167 9.86927 2.53549 8.82253 2.91186C7.77578 3.28823 6.8266 3.83963 6.03021 4.53399C5.23382 5.22835 4.60612 6.0518 4.18362 6.95645C3.76112 7.86111 3.55225 8.82889 3.56917 9.80352C3.60268 11.7343 4.5191 13.5762 6.12044 14.9313C7.72179 16.2865 9.8795 17.0462 12.1275 17.0462C14.3754 17.0462 16.5331 16.2865 18.1345 14.9313C19.7358 13.5762 20.6522 11.7343 20.6857 9.80352Z" fill="#FFF8EB"/>
</svg>
