<svg width="366" height="107" viewBox="0 0 366 107" fill="none" xmlns="http://www.w3.org/2000/svg">
<path d="M16.5589 35.4474V35.5919L16.6771 35.5088C22.0492 31.7285 28.4074 29.5336 35.2368 29.5336C54.4083 29.5336 69.9601 46.779 69.9601 68.0729C69.9601 89.3667 54.4083 106.612 35.2368 106.612C16.0653 106.612 0.513477 89.3667 0.513477 68.0729V68.0727V68.0726V68.0724V68.0723V68.0721V68.072V68.0719V68.0717V68.0716V68.0714V68.0713V68.0711V68.071V68.0709V68.0707V68.0706V68.0704V68.0703V68.0702V68.07V68.0699V68.0697V68.0696V68.0694V68.0693V68.0692V68.069V68.0689V68.0687V68.0686V68.0684V68.0683V68.0682V68.068V68.0679V68.0677V68.0676V68.0674V68.0673V68.0672V68.067V68.0669V68.0667V68.0666V68.0665V68.0663V68.0662V68.066V68.0659V68.0657V68.0656V68.0655V68.0653V68.0652V68.065V68.0649V68.0647V68.0646V68.0645V68.0643V68.0642V68.064V68.0639V68.0637V68.0636V68.0635V68.0633V68.0632V68.063V68.0629V68.0628V68.0626V68.0625V68.0623V68.0622V68.062V68.0619V68.0618V68.0616V68.0615V68.0613V68.0612V68.061V68.0609V68.0608V68.0606V68.0605V68.0603V68.0602V68.0601V68.0599V68.0598V68.0596V68.0595V68.0593V68.0592V68.0591V68.0589V68.0588V68.0586V68.0585V68.0583V68.0582V68.0581V68.0579V68.0578V68.0576V68.0575V68.0573V68.0572V68.0571V68.0569V68.0568V68.0566V68.0565V68.0564V68.0562V68.0561V68.0559V68.0558V68.0556V68.0555V68.0554V68.0552V68.0551V68.0549V68.0548V68.0546V68.0545V68.0544V68.0542V68.0541V68.0539V68.0538V68.0536V68.0535V68.0534V68.0532V68.0531V68.0529V68.0528V68.0527V68.0525V68.0524V68.0522V68.0521V68.0519V68.0518V68.0517V68.0515V68.0514V68.0512V68.0511V68.0509V68.0508V68.0507V68.0505V68.0504V68.0502V68.0501V68.0499V68.0498V68.0497V68.0495V68.0494V68.0492V68.0491V68.049V68.0488V68.0487V68.0485V68.0484V68.0482V68.0481V68.048V68.0478V68.0477V68.0475V68.0474V68.0472V68.0471V68.047V68.0468V68.0467V68.0465V68.0464V68.0462V68.0461V68.046V68.0458V68.0457V68.0455V68.0454V68.0452V68.0451V68.045V68.0448V68.0447V68.0445V68.0444V68.0443V68.0441V68.044V68.0438V68.0437V68.0435V68.0434V68.0433V68.0431V68.043V68.0428V68.0427V68.0425V68.0424V68.0423V68.0421V68.042V68.0418V68.0417V68.0415V68.0414V68.0413V68.0411V68.041V68.0408V68.0407V68.0406V68.0404V68.0403V68.0401V68.04V68.0398V68.0397V68.0396V68.0394V68.0393V68.0391V68.039V68.0388V68.0387V68.0386V68.0384V68.0383V68.0381V68.038V68.0378V68.0377V68.0376V68.0374V68.0373V68.0371V68.037V68.0369V68.0367V68.0366V68.0364V68.0363V68.0361V68.036V68.0359V68.0357V68.0356V68.0354V68.0353V68.0351V68.035V68.0349V68.0347V68.0346V68.0344V68.0343V68.0341V68.034V68.0339V68.0337V68.0336V68.0334V68.0333V68.0332V68.033V68.0329V68.0327V68.0326V68.0324V68.0323V68.0322V68.032V68.0319V68.0317V68.0316V68.0314V68.0313V68.0312V68.031V68.0309V68.0307V68.0306V68.0304V68.0303V68.0302V68.03V68.0299V68.0297V68.0296V68.0295V68.0293V68.0292V68.029V68.0289V68.0287V68.0286V68.0285V68.0283V68.0282V68.028V68.0279V68.0277V68.0276V68.0275V68.0273V68.0272V68.027V68.0269V68.0267V68.0266V68.0265V68.0263V68.0262V68.026V68.0259V68.0258V68.0256V68.0255V68.0253V68.0252V68.025V68.0249V68.0248V68.0246V68.0245V68.0243V68.0242V68.024V68.0239V68.0238V68.0236V68.0235V68.0233V68.0232V68.023V68.0229V68.0228V68.0226V68.0225V68.0223V68.0222V68.0221V68.0219V68.0218V68.0216V68.0215V68.0213V68.0212V68.0211V68.0209V68.0208V68.0206V68.0205V68.0203V68.0202V68.0201V68.0199V68.0198V68.0196V68.0195V68.0194V68.0192V68.0191V68.0189V68.0188V68.0186V68.0185V68.0184V68.0182V68.0181V68.0179V68.0178V68.0176V68.0175V68.0174V68.0172V68.0171V68.0169V68.0168V68.0166V68.0165V68.0164V68.0162V68.0161V68.0159V68.0158V68.0157V68.0155V68.0154V68.0152V68.0151V68.0149V68.0148V68.0147V68.0145V68.0144V68.0142V68.0141V68.0139V68.0138V68.0137V68.0135V68.0134V68.0132V68.0131V68.0129V68.0128V68.0127V68.0125V68.0124V68.0122V68.0121V68.012V68.0118V68.0117V68.0115V68.0114V68.0112V68.0111V68.011V68.0108V68.0107V68.0105V68.0104V68.0102V68.0101V68.01V68.0098V68.0097V68.0095V68.0094V68.0092V68.0091V68.009V68.0088V68.0087V68.0085V68.0084V68.0083V68.0081V68.008V68.0078V68.0077V68.0075V68.0074V68.0073V68.0071V68.007V68.0068V68.0067V68.0065V68.0064V68.0063V68.0061V68.006V68.0058V68.0057V68.0055V68.0054V68.0053V68.0051V68.005V68.0048V68.0047V68.0046V68.0044V68.0043V68.0041V68.004V68.0038V68.0037V68.0036V68.0034V68.0033V68.0031V68.003V68.0028V68.0027V68.0026V68.0024V68.0023V68.0021V68.002V68.0018V68.0017V68.0016V68.0014V68.0013V68.0011V68.001V68.0009V68.0007V68.0006V68.0004V68.0003V68.0001V68V8.98572C0.513477 4.05561 4.11132 0.075 8.53619 0.075C12.9611 0.075 16.5589 4.05561 16.5589 8.98572V35.4474ZM16.5633 68.0729C16.5633 79.5016 24.915 88.7859 35.2368 88.7859C45.5541 88.7859 53.9103 79.5016 53.9103 68.0729C53.9103 56.6441 45.5541 47.3599 35.2368 47.3599C24.9194 47.3599 16.5633 56.6441 16.5633 68.0729Z" fill="#FFF8EB" stroke="#FFF8EB" stroke-width="0.15"/>
<path d="M75.358 68.0728C75.358 46.779 90.9098 29.5335 110.081 29.5335C129.253 29.5335 144.805 46.779 144.805 68.0728C144.805 89.3666 129.253 106.612 110.081 106.612C90.9098 106.612 75.358 89.3666 75.358 68.0728ZM91.4078 68.0728C91.4078 79.5015 99.7595 88.7858 110.081 88.7858C120.399 88.7858 128.755 79.5015 128.755 68.0728C128.755 56.644 120.399 47.3598 110.081 47.3598C99.7639 47.3598 91.4078 56.644 91.4078 68.0728Z" fill="#FFF8EB" stroke="#FFF8EB" stroke-width="0.15"/>
<path d="M166.257 35.4377V35.5821L166.375 35.4991C171.743 31.7285 178.101 29.5336 184.926 29.5336C204.098 29.5336 219.65 46.779 219.65 68.0729C219.65 89.3667 204.098 106.612 184.926 106.612C165.755 106.612 150.203 89.3667 150.203 68.0729C150.203 68.0063 150.205 67.9395 150.207 67.8713L150.207 67.8707C150.209 67.8031 150.212 67.7341 150.212 67.6649V8.98572C150.212 4.05561 153.81 0.075 158.234 0.075C162.659 0.075 166.257 4.05561 166.257 8.98572V35.4377ZM184.926 88.7859H185.001V88.7808C195.284 88.736 203.6 79.469 203.6 68.068C203.6 56.639 195.156 47.355 184.926 47.355C174.697 47.355 166.402 56.4783 166.257 67.7708V67.7717V67.925H166.253V68V68.0001V68.0003V68.0004V68.0006V68.0007V68.0009V68.001V68.0011V68.0013V68.0014V68.0016V68.0017V68.0018V68.002V68.0021V68.0023V68.0024V68.0026V68.0027V68.0028V68.003V68.0031V68.0033V68.0034V68.0036V68.0037V68.0038V68.004V68.0041V68.0043V68.0044V68.0046V68.0047V68.0048V68.005V68.0051V68.0053V68.0054V68.0055V68.0057V68.0058V68.006V68.0061V68.0063V68.0064V68.0065V68.0067V68.0068V68.007V68.0071V68.0073V68.0074V68.0075V68.0077V68.0078V68.008V68.0081V68.0083V68.0084V68.0085V68.0087V68.0088V68.009V68.0091V68.0092V68.0094V68.0095V68.0097V68.0098V68.01V68.0101V68.0102V68.0104V68.0105V68.0107V68.0108V68.011V68.0111V68.0112V68.0114V68.0115V68.0117V68.0118V68.012V68.0121V68.0122V68.0124V68.0125V68.0127V68.0128V68.0129V68.0131V68.0132V68.0134V68.0135V68.0137V68.0138V68.0139V68.0141V68.0142V68.0144V68.0145V68.0147V68.0148V68.0149V68.0151V68.0152V68.0154V68.0155V68.0157V68.0158V68.0159V68.0161V68.0162V68.0164V68.0165V68.0166V68.0168V68.0169V68.0171V68.0172V68.0174V68.0175V68.0176V68.0178V68.0179V68.0181V68.0182V68.0184V68.0185V68.0186V68.0188V68.0189V68.0191V68.0192V68.0194V68.0195V68.0196V68.0198V68.0199V68.0201V68.0202V68.0203V68.0205V68.0206V68.0208V68.0209V68.0211V68.0212V68.0213V68.0215V68.0216V68.0218V68.0219V68.0221V68.0222V68.0223V68.0225V68.0226V68.0228V68.0229V68.023V68.0232V68.0233V68.0235V68.0236V68.0238V68.0239V68.024V68.0242V68.0243V68.0245V68.0246V68.0248V68.0249V68.025V68.0252V68.0253V68.0255V68.0256V68.0258V68.0259V68.026V68.0262V68.0263V68.0265V68.0266V68.0267V68.0269V68.027V68.0272V68.0273V68.0275V68.0276V68.0277V68.0279V68.028V68.0282V68.0283V68.0285V68.0286V68.0287V68.0289V68.029V68.0292V68.0293V68.0295V68.0296V68.0297V68.0299V68.03V68.0302V68.0303V68.0304V68.0306V68.0307V68.0309V68.031V68.0312V68.0313V68.0314V68.0316V68.0317V68.0319V68.032V68.0322V68.0323V68.0324V68.0326V68.0327V68.0329V68.033V68.0332V68.0333V68.0334V68.0336V68.0337V68.0339V68.034V68.0341V68.0343V68.0344V68.0346V68.0347V68.0349V68.035V68.0351V68.0353V68.0354V68.0356V68.0357V68.0359V68.036V68.0361V68.0363V68.0364V68.0366V68.0367V68.0369V68.037V68.0371V68.0373V68.0374V68.0376V68.0377V68.0378V68.038V68.0381V68.0383V68.0384V68.0386V68.0387V68.0388V68.039V68.0391V68.0393V68.0394V68.0396V68.0397V68.0398V68.04V68.0401V68.0403V68.0404V68.0406V68.0407V68.0408V68.041V68.0411V68.0413V68.0414V68.0415V68.0417V68.0418V68.042V68.0421V68.0423V68.0424V68.0425V68.0427V68.0428V68.043V68.0431V68.0433V68.0434V68.0435V68.0437V68.0438V68.044V68.0441V68.0443V68.0444V68.0445V68.0447V68.0448V68.045V68.0451V68.0452V68.0454V68.0455V68.0457V68.0458V68.046V68.0461V68.0462V68.0464V68.0465V68.0467V68.0468V68.047V68.0471V68.0472V68.0474V68.0475V68.0477V68.0478V68.048V68.0481V68.0482V68.0484V68.0485V68.0487V68.0488V68.049V68.0491V68.0492V68.0494V68.0495V68.0497V68.0498V68.0499V68.0501V68.0502V68.0504V68.0505V68.0507V68.0508V68.0509V68.0511V68.0512V68.0514V68.0515V68.0517V68.0518V68.0519V68.0521V68.0522V68.0524V68.0525V68.0527V68.0528V68.0529V68.0531V68.0532V68.0534V68.0535V68.0536V68.0538V68.0539V68.0541V68.0542V68.0544V68.0545V68.0546V68.0548V68.0549V68.0551V68.0552V68.0554V68.0555V68.0556V68.0558V68.0559V68.0561V68.0562V68.0564V68.0565V68.0566V68.0568V68.0569V68.0571V68.0572V68.0573V68.0575V68.0576V68.0578V68.0579V68.0581V68.0582V68.0583V68.0585V68.0586V68.0588V68.0589V68.0591V68.0592V68.0593V68.0595V68.0596V68.0598V68.0599V68.0601V68.0602V68.0603V68.0605V68.0606V68.0608V68.0609V68.061V68.0612V68.0613V68.0615V68.0616V68.0618V68.0619V68.062V68.0622V68.0623V68.0625V68.0626V68.0628V68.0629V68.063V68.0632V68.0633V68.0635V68.0636V68.0637V68.0639V68.064V68.0642V68.0643V68.0645V68.0646V68.0647V68.0649V68.065V68.0652V68.0653V68.0655V68.0656V68.0657V68.0659V68.066V68.0662V68.0663V68.0665V68.0666V68.0667V68.0669V68.067V68.0672V68.0673V68.0674V68.0676V68.0677V68.0679V68.068V68.0682V68.0683V68.0684V68.0686V68.0687V68.0689V68.069V68.0692V68.0693V68.0694V68.0696V68.0697V68.0699V68.07V68.0702V68.0703V68.0704V68.0706V68.0707V68.0709V68.071V68.0711V68.0713V68.0714V68.0716V68.0717V68.0719V68.072V68.0721V68.0723V68.0724V68.0726V68.0727V68.0729C166.253 79.5016 174.604 88.7859 184.926 88.7859Z" fill="#FFF8EB" stroke="#FFF8EB" stroke-width="0.15"/>
<path d="M241.106 35.4377V35.5822L241.224 35.4991C246.592 31.7236 252.95 29.5336 259.771 29.5336C278.942 29.5336 294.494 46.779 294.494 68.0729C294.494 89.3667 278.942 106.612 259.771 106.612C240.6 106.612 225.048 89.3667 225.048 68.0729C225.048 67.9747 225.051 67.8776 225.054 67.7797L225.054 67.7773C225.058 67.6805 225.061 67.5829 225.061 67.4851V8.98572C225.061 4.05561 228.659 0.075 233.083 0.075C237.508 0.075 241.106 4.05561 241.106 8.98572V35.4377ZM241.106 67.925H241.097V68V68.0001V68.0003V68.0004V68.0006V68.0007V68.0009V68.001V68.0011V68.0013V68.0014V68.0016V68.0017V68.0018V68.002V68.0021V68.0023V68.0024V68.0026V68.0027V68.0028V68.003V68.0031V68.0033V68.0034V68.0036V68.0037V68.0038V68.004V68.0041V68.0043V68.0044V68.0046V68.0047V68.0048V68.005V68.0051V68.0053V68.0054V68.0055V68.0057V68.0058V68.006V68.0061V68.0063V68.0064V68.0065V68.0067V68.0068V68.007V68.0071V68.0073V68.0074V68.0075V68.0077V68.0078V68.008V68.0081V68.0083V68.0084V68.0085V68.0087V68.0088V68.009V68.0091V68.0092V68.0094V68.0095V68.0097V68.0098V68.01V68.0101V68.0102V68.0104V68.0105V68.0107V68.0108V68.011V68.0111V68.0112V68.0114V68.0115V68.0117V68.0118V68.012V68.0121V68.0122V68.0124V68.0125V68.0127V68.0128V68.0129V68.0131V68.0132V68.0134V68.0135V68.0137V68.0138V68.0139V68.0141V68.0142V68.0144V68.0145V68.0147V68.0148V68.0149V68.0151V68.0152V68.0154V68.0155V68.0157V68.0158V68.0159V68.0161V68.0162V68.0164V68.0165V68.0166V68.0168V68.0169V68.0171V68.0172V68.0174V68.0175V68.0176V68.0178V68.0179V68.0181V68.0182V68.0184V68.0185V68.0186V68.0188V68.0189V68.0191V68.0192V68.0194V68.0195V68.0196V68.0198V68.0199V68.0201V68.0202V68.0203V68.0205V68.0206V68.0208V68.0209V68.0211V68.0212V68.0213V68.0215V68.0216V68.0218V68.0219V68.0221V68.0222V68.0223V68.0225V68.0226V68.0228V68.0229V68.023V68.0232V68.0233V68.0235V68.0236V68.0238V68.0239V68.024V68.0242V68.0243V68.0245V68.0246V68.0248V68.0249V68.025V68.0252V68.0253V68.0255V68.0256V68.0258V68.0259V68.026V68.0262V68.0263V68.0265V68.0266V68.0267V68.0269V68.027V68.0272V68.0273V68.0275V68.0276V68.0277V68.0279V68.028V68.0282V68.0283V68.0285V68.0286V68.0287V68.0289V68.029V68.0292V68.0293V68.0295V68.0296V68.0297V68.0299V68.03V68.0302V68.0303V68.0304V68.0306V68.0307V68.0309V68.031V68.0312V68.0313V68.0314V68.0316V68.0317V68.0319V68.032V68.0322V68.0323V68.0324V68.0326V68.0327V68.0329V68.033V68.0332V68.0333V68.0334V68.0336V68.0337V68.0339V68.034V68.0341V68.0343V68.0344V68.0346V68.0347V68.0349V68.035V68.0351V68.0353V68.0354V68.0356V68.0357V68.0359V68.036V68.0361V68.0363V68.0364V68.0366V68.0367V68.0369V68.037V68.0371V68.0373V68.0374V68.0376V68.0377V68.0378V68.038V68.0381V68.0383V68.0384V68.0386V68.0387V68.0388V68.039V68.0391V68.0393V68.0394V68.0396V68.0397V68.0398V68.04V68.0401V68.0403V68.0404V68.0406V68.0407V68.0408V68.041V68.0411V68.0413V68.0414V68.0415V68.0417V68.0418V68.042V68.0421V68.0423V68.0424V68.0425V68.0427V68.0428V68.043V68.0431V68.0433V68.0434V68.0435V68.0437V68.0438V68.044V68.0441V68.0443V68.0444V68.0445V68.0447V68.0448V68.045V68.0451V68.0452V68.0454V68.0455V68.0457V68.0458V68.046V68.0461V68.0462V68.0464V68.0465V68.0467V68.0468V68.047V68.0471V68.0472V68.0474V68.0475V68.0477V68.0478V68.048V68.0481V68.0482V68.0484V68.0485V68.0487V68.0488V68.049V68.0491V68.0492V68.0494V68.0495V68.0497V68.0498V68.0499V68.0501V68.0502V68.0504V68.0505V68.0507V68.0508V68.0509V68.0511V68.0512V68.0514V68.0515V68.0517V68.0518V68.0519V68.0521V68.0522V68.0524V68.0525V68.0527V68.0528V68.0529V68.0531V68.0532V68.0534V68.0535V68.0536V68.0538V68.0539V68.0541V68.0542V68.0544V68.0545V68.0546V68.0548V68.0549V68.0551V68.0552V68.0554V68.0555V68.0556V68.0558V68.0559V68.0561V68.0562V68.0564V68.0565V68.0566V68.0568V68.0569V68.0571V68.0572V68.0573V68.0575V68.0576V68.0578V68.0579V68.0581V68.0582V68.0583V68.0585V68.0586V68.0588V68.0589V68.0591V68.0592V68.0593V68.0595V68.0596V68.0598V68.0599V68.0601V68.0602V68.0603V68.0605V68.0606V68.0608V68.0609V68.061V68.0612V68.0613V68.0615V68.0616V68.0618V68.0619V68.062V68.0622V68.0623V68.0625V68.0626V68.0628V68.0629V68.063V68.0632V68.0633V68.0635V68.0636V68.0637V68.0639V68.064V68.0642V68.0643V68.0645V68.0646V68.0647V68.0649V68.065V68.0652V68.0653V68.0655V68.0656V68.0657V68.0659V68.066V68.0662V68.0663V68.0665V68.0666V68.0667V68.0669V68.067V68.0672V68.0673V68.0674V68.0676V68.0677V68.0679V68.068V68.0682V68.0683V68.0684V68.0686V68.0687V68.0689V68.069V68.0692V68.0693V68.0694V68.0696V68.0697V68.0699V68.07V68.0702V68.0703V68.0704V68.0706V68.0707V68.0709V68.071V68.0711V68.0713V68.0714V68.0716V68.0717V68.0719V68.072V68.0721V68.0723V68.0724V68.0726V68.0727V68.0729C241.097 79.5016 249.449 88.7859 259.771 88.7859C270.088 88.7859 278.444 79.5016 278.444 68.0729C278.444 56.6437 269.948 47.3599 259.771 47.3599C249.594 47.3599 241.335 56.3857 241.106 67.5953V67.5969V67.925Z" fill="#FFF8EB" stroke="#FFF8EB" stroke-width="0.15"/>
<path d="M365.903 38.861L365.907 38.9324H365.925V38.9546C365.925 38.9972 365.924 39.0387 365.923 39.0813V39.0816C365.922 39.1239 365.921 39.1672 365.921 39.212C365.921 39.236 365.922 39.2598 365.923 39.2813C365.924 39.3035 365.925 39.3235 365.925 39.3431C365.925 39.4205 365.921 39.4919 365.916 39.5661C365.913 39.6181 365.909 39.6715 365.908 39.7292L365.907 39.7304C365.588 57.6091 354.315 72.4835 339.237 76.4472L339.181 76.4619V76.5197V97.8717C339.181 102.802 335.583 106.782 331.158 106.782C326.733 106.782 323.135 102.802 323.135 97.8717V76.5003V76.4426L323.08 76.4278C308.39 72.5175 297.326 58.2537 296.526 40.9668L296.527 40.9668L296.526 40.958C296.439 40.432 296.387 39.8921 296.387 39.3431C296.387 34.414 300.132 30.4324 304.409 30.4324C308.687 30.4324 312.184 34.1579 312.41 38.861L312.414 38.9324H312.485H312.528V38.9546C312.528 50.3882 320.88 59.6676 331.202 59.6676C341.523 59.6676 349.875 50.3882 349.875 38.9546V38.9324H349.898L349.901 38.861C350.127 34.1579 353.625 30.4324 357.902 30.4324C362.18 30.4324 365.677 34.1579 365.903 38.861Z" fill="#FFF8EB" stroke="#FFF8EB" stroke-width="0.15"/>
</svg>
