<svg width="326" height="90" viewBox="0 0 326 90" fill="none" xmlns="http://www.w3.org/2000/svg">
<path d="M14.6715 29.8555V29.9954L14.7881 29.9179C19.573 26.7348 25.2365 24.8864 31.32 24.8864C48.3985 24.8864 62.2471 39.4089 62.2471 57.3341C62.2471 75.2593 48.3985 89.7818 31.32 89.7818C14.2415 89.7818 0.392871 75.2593 0.392871 57.3341V57.334V57.3338V57.3337V57.3336V57.3335V57.3334V57.3332V57.3331V57.333V57.3329V57.3328V57.3326V57.3325V57.3324V57.3323V57.3322V57.332V57.3319V57.3318V57.3317V57.3316V57.3314V57.3313V57.3312V57.3311V57.331V57.3308V57.3307V57.3306V57.3305V57.3304V57.3302V57.3301V57.33V57.3299V57.3298V57.3297V57.3295V57.3294V57.3293V57.3292V57.3291V57.3289V57.3288V57.3287V57.3286V57.3284V57.3283V57.3282V57.3281V57.328V57.3279V57.3277V57.3276V57.3275V57.3274V57.3273V57.3271V57.327V57.3269V57.3268V57.3267V57.3265V57.3264V57.3263V57.3262V57.3261V57.3259V57.3258V57.3257V57.3256V57.3255V57.3253V57.3252V57.3251V57.325V57.3249V57.3247V57.3246V57.3245V57.3244V57.3243V57.3241V57.324V57.3239V57.3238V57.3237V57.3235V57.3234V57.3233V57.3232V57.3231V57.3229V57.3228V57.3227V57.3226V57.3225V57.3223V57.3222V57.3221V57.322V57.3219V57.3217V57.3216V57.3215V57.3214V57.3213V57.3211V57.321V57.3209V57.3208V57.3207V57.3205V57.3204V57.3203V57.3202V57.3201V57.3199V57.3198V57.3197V57.3196V57.3195V57.3193V57.3192V57.3191V57.319V57.3189V57.3187V57.3186V57.3185V57.3184V57.3183V57.3181V57.318V57.3179V57.3178V57.3177V57.3175V57.3174V57.3173V57.3172V57.3171V57.3169V57.3168V57.3167V57.3166V57.3165V57.3163V57.3162V57.3161V57.316V57.3159V57.3157V57.3156V57.3155V57.3154V57.3153V57.3151V57.315V57.3149V57.3148V57.3147V57.3145V57.3144V57.3143V57.3142V57.3141V57.3139V57.3138V57.3137V57.3136V57.3135V57.3134V57.3132V57.3131V57.313V57.3129V57.3128V57.3126V57.3125V57.3124V57.3123V57.3122V57.312V57.3119V57.3118V57.3117V57.3116V57.3114V57.3113V57.3112V57.3111V57.311V57.3108V57.3107V57.3106V57.3105V57.3104V57.3102V57.3101V57.31V57.3099V57.3098V57.3096V57.3095V57.3094V57.3093V57.3092V57.309V57.3089V57.3088V57.3087V57.3086V57.3084V57.3083V57.3082V57.3081V57.308V57.3078V57.3077V57.3076V57.3075V57.3074V57.3072V57.3071V57.307V57.3069V57.3068V57.3066V57.3065V57.3064V57.3063V57.3062V57.306V57.3059V57.3058V57.3057V57.3056V57.3054V57.3053V57.3052V57.3051V57.305V57.3048V57.3047V57.3046V57.3045V57.3044V57.3042V57.3041V57.304V57.3039V57.3038V57.3036V57.3035V57.3034V57.3033V57.3032V57.303V57.3029V57.3028V57.3027V57.3026V57.3024V57.3023V57.3022V57.3021V57.302V57.3018V57.3017V57.3016V57.3015V57.3014V57.3012V57.3011V57.301V57.3009V57.3008V57.3006V57.3005V57.3004V57.3003V57.3002V57.3V57.2999V57.2998V57.2997V57.2996V57.2994V57.2993V57.2992V57.2991V57.299V57.2989V57.2987V57.2986V57.2985V57.2984V57.2982V57.2981V57.298V57.2979V57.2978V57.2976V57.2975V57.2974V57.2973V57.2972V57.2971V57.2969V57.2968V57.2967V57.2966V57.2965V57.2963V57.2962V57.2961V57.296V57.2959V57.2957V57.2956V57.2955V57.2954V57.2953V57.2951V57.295V57.2949V57.2948V57.2947V57.2945V57.2944V57.2943V57.2942V57.2941V57.2939V57.2938V57.2937V57.2936V57.2935V57.2933V57.2932V57.2931V57.293V57.2929V57.2927V57.2926V57.2925V57.2924V57.2923V57.2921V57.292V57.2919V57.2918V57.2917V57.2915V57.2914V57.2913V57.2912V57.2911V57.2909V57.2908V57.2907V57.2906V57.2905V57.2903V57.2902V57.2901V57.29V57.2899V57.2897V57.2896V57.2895V57.2894V57.2893V57.2891V57.289V57.2889V57.2888V57.2887V57.2885V57.2884V57.2883V57.2882V57.2881V57.2879V57.2878V57.2877V57.2876V57.2875V57.2873V57.2872V57.2871V57.287V57.2869V57.2867V57.2866V57.2865V57.2864V57.2863V57.2861V57.286V57.2859V57.2858V57.2857V57.2855V57.2854V57.2853V57.2852V57.2851V57.2849V57.2848V57.2847V57.2846V57.2845V57.2843V57.2842V57.2841V57.284V57.2839V57.2837V57.2836V57.2835V57.2834V57.2833V57.2831V57.283V57.2829V57.2828V57.2827V57.2826V57.2824V57.2823V57.2822V57.2821V57.282V57.2818V57.2817V57.2816V57.2815V57.2814V57.2812V57.2811V57.281V57.2809V57.2808V57.2806V57.2805V57.2804V57.2803V57.2802V57.28V57.2799V57.2798V57.2797V57.2796V57.2794V57.2793V57.2792V57.2791V57.279V57.2788V57.2787V57.2786V57.2785V57.2784V57.2782V57.2781V57.278V57.2779V57.2778V57.2776V57.2775V57.2774V57.2773V57.2772V57.277V57.2769V57.2768V57.2767V57.2766V57.2764V57.2763V57.2762V57.2761V57.276V57.2758V57.2757V57.2756V57.2755V57.2754V57.2752V57.2751V57.275V57.2749V57.2748V57.2746V57.2745V57.2744V57.2743V57.2742V57.274V57.2739V57.2738V57.2737V57.2736V57.2734V57.2733V57.2732V57.2731V57.273V57.2728V57.2727V7.56818C0.392871 3.42527 3.59154 0.075 7.5322 0.075C11.4729 0.075 14.6715 3.42527 14.6715 7.56818V29.8555ZM14.6754 57.3341C14.6754 66.9693 22.1228 74.7914 31.32 74.7914C40.5133 74.7914 47.9646 66.9694 47.9646 57.3341C47.9646 47.6988 40.5133 39.8768 31.32 39.8768C22.1267 39.8768 14.6754 47.6988 14.6754 57.3341Z" fill="#0A2864" stroke="#0A2864" stroke-width="0.15"/>
<path d="M67.0726 57.3342C67.0726 39.4091 80.9211 24.8865 97.9997 24.8865C115.078 24.8865 128.927 39.4091 128.927 57.3342C128.927 75.2594 115.078 89.782 97.9997 89.782C80.9211 89.782 67.0726 75.2594 67.0726 57.3342ZM81.3551 57.3342C81.3551 66.9695 88.8025 74.7915 97.9997 74.7915C107.193 74.7915 114.644 66.9695 114.644 57.3342C114.644 47.699 107.193 39.877 97.9997 39.877C88.8064 39.877 81.3551 47.699 81.3551 57.3342Z" fill="#0A2864" stroke="#0A2864" stroke-width="0.15"/>
<path d="M148.039 29.8475V29.9874L148.156 29.91C152.937 26.735 158.6 24.8866 164.68 24.8866C181.758 24.8866 195.607 39.4091 195.607 57.3343C195.607 75.2595 181.758 89.7821 164.68 89.7821C147.601 89.7821 133.753 75.2595 133.753 57.3343C133.753 57.2786 133.755 57.2226 133.757 57.1651L133.757 57.1644C133.759 57.1076 133.761 57.0493 133.761 56.9907V7.56843C133.761 3.42552 136.959 0.0752441 140.9 0.0752441C144.841 0.0752441 148.039 3.42552 148.039 7.56843V29.8475ZM164.68 74.7916H164.755V74.7873C173.914 74.7449 181.324 66.9393 181.324 57.3303C181.324 47.6948 173.795 39.873 164.68 39.873C155.565 39.873 148.168 47.5594 148.039 57.0797V57.0807V57.198H148.035V57.273V57.2731V57.2732V57.2733V57.2735V57.2736V57.2737V57.2738V57.2739V57.2741V57.2742V57.2743V57.2744V57.2745V57.2747V57.2748V57.2749V57.275V57.2751V57.2753V57.2754V57.2755V57.2756V57.2757V57.2759V57.276V57.2761V57.2762V57.2763V57.2765V57.2766V57.2767V57.2768V57.2769V57.2771V57.2772V57.2773V57.2774V57.2775V57.2776V57.2778V57.2779V57.278V57.2781V57.2782V57.2784V57.2785V57.2786V57.2787V57.2788V57.279V57.2791V57.2792V57.2793V57.2794V57.2796V57.2797V57.2798V57.2799V57.28V57.2802V57.2803V57.2804V57.2805V57.2806V57.2808V57.2809V57.281V57.2811V57.2812V57.2814V57.2815V57.2816V57.2817V57.2818V57.282V57.2821V57.2822V57.2823V57.2824V57.2826V57.2827V57.2828V57.2829V57.283V57.2832V57.2833V57.2834V57.2835V57.2836V57.2838V57.2839V57.284V57.2841V57.2842V57.2844V57.2845V57.2846V57.2847V57.2848V57.285V57.2851V57.2852V57.2853V57.2854V57.2856V57.2857V57.2858V57.2859V57.286V57.2862V57.2863V57.2864V57.2865V57.2866V57.2868V57.2869V57.287V57.2871V57.2872V57.2874V57.2875V57.2876V57.2877V57.2878V57.288V57.2881V57.2882V57.2883V57.2884V57.2886V57.2887V57.2888V57.2889V57.289V57.2892V57.2893V57.2894V57.2895V57.2896V57.2898V57.2899V57.29V57.2901V57.2902V57.2904V57.2905V57.2906V57.2907V57.2908V57.291V57.2911V57.2912V57.2913V57.2914V57.2915V57.2917V57.2918V57.2919V57.292V57.2922V57.2923V57.2924V57.2925V57.2926V57.2928V57.2929V57.293V57.2931V57.2932V57.2934V57.2935V57.2936V57.2937V57.2938V57.2939V57.2941V57.2942V57.2943V57.2944V57.2945V57.2947V57.2948V57.2949V57.295V57.2951V57.2953V57.2954V57.2955V57.2956V57.2957V57.2959V57.296V57.2961V57.2962V57.2963V57.2965V57.2966V57.2967V57.2968V57.2969V57.2971V57.2972V57.2973V57.2974V57.2975V57.2977V57.2978V57.2979V57.298V57.2981V57.2983V57.2984V57.2985V57.2986V57.2987V57.2989V57.299V57.2991V57.2992V57.2993V57.2995V57.2996V57.2997V57.2998V57.2999V57.3001V57.3002V57.3003V57.3004V57.3005V57.3007V57.3008V57.3009V57.301V57.3011V57.3013V57.3014V57.3015V57.3016V57.3017V57.3019V57.302V57.3021V57.3022V57.3023V57.3025V57.3026V57.3027V57.3028V57.3029V57.3031V57.3032V57.3033V57.3034V57.3035V57.3037V57.3038V57.3039V57.304V57.3041V57.3043V57.3044V57.3045V57.3046V57.3047V57.3049V57.305V57.3051V57.3052V57.3053V57.3055V57.3056V57.3057V57.3058V57.3059V57.3061V57.3062V57.3063V57.3064V57.3065V57.3067V57.3068V57.3069V57.307V57.3071V57.3073V57.3074V57.3075V57.3076V57.3077V57.3078V57.308V57.3081V57.3082V57.3083V57.3084V57.3086V57.3087V57.3088V57.3089V57.309V57.3092V57.3093V57.3094V57.3095V57.3096V57.3098V57.3099V57.31V57.3101V57.3102V57.3104V57.3105V57.3106V57.3107V57.3108V57.311V57.3111V57.3112V57.3113V57.3114V57.3116V57.3117V57.3118V57.3119V57.312V57.3122V57.3123V57.3124V57.3125V57.3126V57.3128V57.3129V57.313V57.3131V57.3132V57.3134V57.3135V57.3136V57.3137V57.3138V57.314V57.3141V57.3142V57.3143V57.3144V57.3146V57.3147V57.3148V57.3149V57.315V57.3152V57.3153V57.3154V57.3155V57.3156V57.3158V57.3159V57.316V57.3161V57.3162V57.3164V57.3165V57.3166V57.3167V57.3168V57.317V57.3171V57.3172V57.3173V57.3174V57.3176V57.3177V57.3178V57.3179V57.318V57.3182V57.3183V57.3184V57.3185V57.3186V57.3188V57.3189V57.319V57.3191V57.3192V57.3194V57.3195V57.3196V57.3197V57.3198V57.32V57.3201V57.3202V57.3203V57.3204V57.3206V57.3207V57.3208V57.3209V57.321V57.3212V57.3213V57.3214V57.3215V57.3216V57.3218V57.3219V57.322V57.3221V57.3222V57.3224V57.3225V57.3226V57.3227V57.3228V57.323V57.3231V57.3232V57.3233V57.3234V57.3236V57.3237V57.3238V57.3239V57.324V57.3242V57.3243V57.3244V57.3245V57.3246V57.3247V57.3249V57.325V57.3251V57.3252V57.3253V57.3255V57.3256V57.3257V57.3258V57.3259V57.3261V57.3262V57.3263V57.3264V57.3265V57.3267V57.3268V57.3269V57.327V57.3271V57.3273V57.3274V57.3275V57.3276V57.3277V57.3279V57.328V57.3281V57.3282V57.3283V57.3285V57.3286V57.3287V57.3288V57.3289V57.3291V57.3292V57.3293V57.3294V57.3295V57.3297V57.3298V57.3299V57.33V57.3301V57.3303V57.3304V57.3305V57.3306V57.3307V57.3309V57.331V57.3311V57.3312V57.3313V57.3315V57.3316V57.3317V57.3318V57.3319V57.3321V57.3322V57.3323V57.3324V57.3325V57.3327V57.3328V57.3329V57.333V57.3331V57.3333V57.3334V57.3335V57.3336V57.3337V57.3339V57.334V57.3341V57.3342V57.3343C148.035 66.9696 155.483 74.7916 164.68 74.7916Z" fill="#0A2864" stroke="#0A2864" stroke-width="0.15"/>
<path d="M214.723 29.8475V29.9875L214.839 29.91C219.62 26.7309 225.284 24.8866 231.36 24.8866C248.438 24.8866 262.287 39.4091 262.287 57.3343C262.287 75.2595 248.438 89.7821 231.36 89.7821C214.281 89.7821 200.432 75.2595 200.432 57.3343C200.432 57.252 200.435 57.1705 200.438 57.088L200.438 57.0858C200.441 57.0044 200.444 56.922 200.444 56.8393V7.56843C200.444 3.42552 203.643 0.0752441 207.583 0.0752441C211.524 0.0752441 214.723 3.42552 214.723 7.56843V29.8475ZM214.723 57.198H214.715V57.273V57.2731V57.2732V57.2733V57.2735V57.2736V57.2737V57.2738V57.2739V57.2741V57.2742V57.2743V57.2744V57.2745V57.2747V57.2748V57.2749V57.275V57.2751V57.2753V57.2754V57.2755V57.2756V57.2757V57.2759V57.276V57.2761V57.2762V57.2763V57.2765V57.2766V57.2767V57.2768V57.2769V57.2771V57.2772V57.2773V57.2774V57.2775V57.2776V57.2778V57.2779V57.278V57.2781V57.2782V57.2784V57.2785V57.2786V57.2787V57.2788V57.279V57.2791V57.2792V57.2793V57.2794V57.2796V57.2797V57.2798V57.2799V57.28V57.2802V57.2803V57.2804V57.2805V57.2806V57.2808V57.2809V57.281V57.2811V57.2812V57.2814V57.2815V57.2816V57.2817V57.2818V57.282V57.2821V57.2822V57.2823V57.2824V57.2826V57.2827V57.2828V57.2829V57.283V57.2832V57.2833V57.2834V57.2835V57.2836V57.2838V57.2839V57.284V57.2841V57.2842V57.2844V57.2845V57.2846V57.2847V57.2848V57.285V57.2851V57.2852V57.2853V57.2854V57.2856V57.2857V57.2858V57.2859V57.286V57.2862V57.2863V57.2864V57.2865V57.2866V57.2868V57.2869V57.287V57.2871V57.2872V57.2874V57.2875V57.2876V57.2877V57.2878V57.288V57.2881V57.2882V57.2883V57.2884V57.2886V57.2887V57.2888V57.2889V57.289V57.2892V57.2893V57.2894V57.2895V57.2896V57.2898V57.2899V57.29V57.2901V57.2902V57.2904V57.2905V57.2906V57.2907V57.2908V57.291V57.2911V57.2912V57.2913V57.2914V57.2915V57.2917V57.2918V57.2919V57.292V57.2922V57.2923V57.2924V57.2925V57.2926V57.2928V57.2929V57.293V57.2931V57.2932V57.2934V57.2935V57.2936V57.2937V57.2938V57.2939V57.2941V57.2942V57.2943V57.2944V57.2945V57.2947V57.2948V57.2949V57.295V57.2951V57.2953V57.2954V57.2955V57.2956V57.2957V57.2959V57.296V57.2961V57.2962V57.2963V57.2965V57.2966V57.2967V57.2968V57.2969V57.2971V57.2972V57.2973V57.2974V57.2975V57.2977V57.2978V57.2979V57.298V57.2981V57.2983V57.2984V57.2985V57.2986V57.2987V57.2989V57.299V57.2991V57.2992V57.2993V57.2995V57.2996V57.2997V57.2998V57.2999V57.3001V57.3002V57.3003V57.3004V57.3005V57.3007V57.3008V57.3009V57.301V57.3011V57.3013V57.3014V57.3015V57.3016V57.3017V57.3019V57.302V57.3021V57.3022V57.3023V57.3025V57.3026V57.3027V57.3028V57.3029V57.3031V57.3032V57.3033V57.3034V57.3035V57.3037V57.3038V57.3039V57.304V57.3041V57.3043V57.3044V57.3045V57.3046V57.3047V57.3049V57.305V57.3051V57.3052V57.3053V57.3055V57.3056V57.3057V57.3058V57.3059V57.3061V57.3062V57.3063V57.3064V57.3065V57.3067V57.3068V57.3069V57.307V57.3071V57.3073V57.3074V57.3075V57.3076V57.3077V57.3078V57.308V57.3081V57.3082V57.3083V57.3084V57.3086V57.3087V57.3088V57.3089V57.309V57.3092V57.3093V57.3094V57.3095V57.3096V57.3098V57.3099V57.31V57.3101V57.3102V57.3104V57.3105V57.3106V57.3107V57.3108V57.311V57.3111V57.3112V57.3113V57.3114V57.3116V57.3117V57.3118V57.3119V57.312V57.3122V57.3123V57.3124V57.3125V57.3126V57.3128V57.3129V57.313V57.3131V57.3132V57.3134V57.3135V57.3136V57.3137V57.3138V57.314V57.3141V57.3142V57.3143V57.3144V57.3146V57.3147V57.3148V57.3149V57.315V57.3152V57.3153V57.3154V57.3155V57.3156V57.3158V57.3159V57.316V57.3161V57.3162V57.3164V57.3165V57.3166V57.3167V57.3168V57.317V57.3171V57.3172V57.3173V57.3174V57.3176V57.3177V57.3178V57.3179V57.318V57.3182V57.3183V57.3184V57.3185V57.3186V57.3188V57.3189V57.319V57.3191V57.3192V57.3194V57.3195V57.3196V57.3197V57.3198V57.32V57.3201V57.3202V57.3203V57.3204V57.3206V57.3207V57.3208V57.3209V57.321V57.3212V57.3213V57.3214V57.3215V57.3216V57.3218V57.3219V57.322V57.3221V57.3222V57.3224V57.3225V57.3226V57.3227V57.3228V57.323V57.3231V57.3232V57.3233V57.3234V57.3236V57.3237V57.3238V57.3239V57.324V57.3242V57.3243V57.3244V57.3245V57.3246V57.3247V57.3249V57.325V57.3251V57.3252V57.3253V57.3255V57.3256V57.3257V57.3258V57.3259V57.3261V57.3262V57.3263V57.3264V57.3265V57.3267V57.3268V57.3269V57.327V57.3271V57.3273V57.3274V57.3275V57.3276V57.3277V57.3279V57.328V57.3281V57.3282V57.3283V57.3285V57.3286V57.3287V57.3288V57.3289V57.3291V57.3292V57.3293V57.3294V57.3295V57.3297V57.3298V57.3299V57.33V57.3301V57.3303V57.3304V57.3305V57.3306V57.3307V57.3309V57.331V57.3311V57.3312V57.3313V57.3315V57.3316V57.3317V57.3318V57.3319V57.3321V57.3322V57.3323V57.3324V57.3325V57.3327V57.3328V57.3329V57.333V57.3331V57.3333V57.3334V57.3335V57.3336V57.3337V57.3339V57.334V57.3341V57.3342V57.3343C214.715 66.9696 222.162 74.7916 231.36 74.7916C240.553 74.7916 248.004 66.9696 248.004 57.3343C248.004 47.6987 240.428 39.8771 231.36 39.8771C222.292 39.8771 214.926 47.4813 214.723 56.9318V56.9334V57.198Z" fill="#0A2864" stroke="#0A2864" stroke-width="0.15"/>
<path d="M325.905 32.7313L325.909 32.8025H325.925V32.8093C325.925 32.8449 325.924 32.8797 325.923 32.9156L325.923 32.9167C325.922 32.952 325.921 32.9885 325.921 33.0261C325.921 33.0466 325.922 33.0667 325.923 33.0846L325.923 33.0853C325.924 33.104 325.925 33.1205 325.925 33.1365C325.925 33.2015 325.921 33.2605 325.917 33.3224C325.914 33.3663 325.911 33.4115 325.909 33.4612L325.909 33.4624C325.625 48.5132 315.586 61.0377 302.155 64.3756L302.098 64.3897V64.4484V82.432C302.098 86.5749 298.899 89.9252 294.959 89.9252C291.018 89.9252 287.819 86.5749 287.819 82.432V64.432V64.3735L287.763 64.3593C274.678 61.0663 264.825 49.0559 264.113 34.5033L264.114 34.5033L264.112 34.4941C264.035 34.0517 263.989 33.5979 263.989 33.1365C263.989 28.9945 267.319 25.6434 271.128 25.6434C274.937 25.6434 278.047 28.779 278.248 32.7313L278.251 32.8025H278.323H278.353V32.8093C278.353 42.4486 285.8 50.2665 294.998 50.2665C304.195 50.2665 311.642 42.4486 311.642 32.8093V32.8025H311.662L311.665 32.7313C311.866 28.779 314.976 25.6434 318.785 25.6434C322.595 25.6434 325.704 28.779 325.905 32.7313Z" fill="#0A2864" stroke="#0A2864" stroke-width="0.15"/>
</svg>
