<svg width="326" height="80" viewBox="0 0 326 80" fill="none" xmlns="http://www.w3.org/2000/svg">
<path d="M14.6715 26.5382V26.6697L14.7847 26.6027C19.5699 23.7731 25.2346 22.1295 31.32 22.1295C48.4069 22.1295 62.2471 35.0426 62.2471 50.9636C62.2471 66.8846 48.4069 79.7977 31.32 79.7977C14.2331 79.7977 0.392871 66.8846 0.392871 50.9636V50.9635V50.9634V50.9633V50.9632V50.9631V50.963V50.9629V50.9628V50.9627V50.9626V50.9625V50.9624V50.9622V50.9621V50.962V50.9619V50.9618V50.9617V50.9616V50.9615V50.9614V50.9613V50.9612V50.9611V50.961V50.9609V50.9608V50.9607V50.9605V50.9604V50.9603V50.9602V50.9601V50.96V50.9599V50.9598V50.9597V50.9596V50.9595V50.9594V50.9593V50.9592V50.9591V50.959V50.9588V50.9587V50.9586V50.9585V50.9584V50.9583V50.9582V50.9581V50.958V50.9579V50.9578V50.9577V50.9576V50.9575V50.9574V50.9572V50.9571V50.957V50.9569V50.9568V50.9567V50.9566V50.9565V50.9564V50.9563V50.9562V50.9561V50.956V50.9559V50.9558V50.9556V50.9555V50.9554V50.9553V50.9552V50.9551V50.955V50.9549V50.9548V50.9547V50.9546V50.9545V50.9544V50.9543V50.9542V50.954V50.9539V50.9538V50.9537V50.9536V50.9535V50.9534V50.9533V50.9532V50.9531V50.953V50.9529V50.9528V50.9527V50.9526V50.9524V50.9523V50.9522V50.9521V50.952V50.9519V50.9518V50.9517V50.9516V50.9515V50.9514V50.9513V50.9512V50.9511V50.951V50.9509V50.9507V50.9506V50.9505V50.9504V50.9503V50.9502V50.9501V50.95V50.9499V50.9498V50.9497V50.9496V50.9495V50.9494V50.9493V50.9491V50.949V50.9489V50.9488V50.9487V50.9486V50.9485V50.9484V50.9483V50.9482V50.9481V50.948V50.9479V50.9478V50.9477V50.9475V50.9474V50.9473V50.9472V50.9471V50.947V50.9469V50.9468V50.9467V50.9466V50.9465V50.9464V50.9463V50.9462V50.9461V50.946V50.9458V50.9457V50.9456V50.9455V50.9454V50.9453V50.9452V50.9451V50.945V50.9449V50.9448V50.9447V50.9446V50.9445V50.9444V50.9442V50.9441V50.944V50.9439V50.9438V50.9437V50.9436V50.9435V50.9434V50.9433V50.9432V50.9431V50.943V50.9429V50.9428V50.9426V50.9425V50.9424V50.9423V50.9422V50.9421V50.942V50.9419V50.9418V50.9417V50.9416V50.9415V50.9414V50.9413V50.9412V50.9411V50.9409V50.9408V50.9407V50.9406V50.9405V50.9404V50.9403V50.9402V50.9401V50.94V50.9399V50.9398V50.9397V50.9396V50.9395V50.9393V50.9392V50.9391V50.939V50.9389V50.9388V50.9387V50.9386V50.9385V50.9384V50.9383V50.9382V50.9381V50.938V50.9379V50.9377V50.9376V50.9375V50.9374V50.9373V50.9372V50.9371V50.937V50.9369V50.9368V50.9367V50.9366V50.9365V50.9364V50.9363V50.9361V50.936V50.9359V50.9358V50.9357V50.9356V50.9355V50.9354V50.9353V50.9352V50.9351V50.935V50.9349V50.9348V50.9347V50.9346V50.9344V50.9343V50.9342V50.9341V50.934V50.9339V50.9338V50.9337V50.9336V50.9335V50.9334V50.9333V50.9332V50.9331V50.933V50.9328V50.9327V50.9326V50.9325V50.9324V50.9323V50.9322V50.9321V50.932V50.9319V50.9318V50.9317V50.9316V50.9315V50.9314V50.9313V50.9311V50.931V50.9309V50.9308V50.9307V50.9306V50.9305V50.9304V50.9303V50.9302V50.9301V50.93V50.9299V50.9298V50.9297V50.9295V50.9294V50.9293V50.9292V50.9291V50.929V50.9289V50.9288V50.9287V50.9286V50.9285V50.9284V50.9283V50.9282V50.9281V50.9279V50.9278V50.9277V50.9276V50.9275V50.9274V50.9273V50.9272V50.9271V50.927V50.9269V50.9268V50.9267V50.9266V50.9265V50.9263V50.9262V50.9261V50.926V50.9259V50.9258V50.9257V50.9256V50.9255V50.9254V50.9253V50.9252V50.9251V50.925V50.9249V50.9248V50.9246V50.9245V50.9244V50.9243V50.9242V50.9241V50.924V50.9239V50.9238V50.9237V50.9236V50.9235V50.9234V50.9233V50.9232V50.923V50.9229V50.9228V50.9227V50.9226V50.9225V50.9224V50.9223V50.9222V50.9221V50.922V50.9219V50.9218V50.9217V50.9216V50.9215V50.9213V50.9212V50.9211V50.921V50.9209V50.9208V50.9207V50.9206V50.9205V50.9204V50.9203V50.9202V50.9201V50.92V50.9199V50.9197V50.9196V50.9195V50.9194V50.9193V50.9192V50.9191V50.919V50.9189V50.9188V50.9187V50.9186V50.9185V50.9184V50.9183V50.9181V50.918V50.9179V50.9178V50.9177V50.9176V50.9175V50.9174V50.9173V50.9172V50.9171V50.917V50.9169V50.9168V50.9167V50.9165V50.9164V50.9163V50.9162V50.9161V50.916V50.9159V50.9158V50.9157V50.9156V50.9155V50.9154V50.9153V50.9152V50.9151V50.915V50.9148V50.9147V50.9146V50.9145V50.9144V50.9143V50.9142V50.9141V50.914V50.9139V50.9138V50.9137V50.9136V50.9135V50.9134V50.9132V50.9131V50.913V50.9129V50.9128V50.9127V50.9126V50.9125V50.9124V50.9123V50.9122V50.9121V50.912V50.9119V50.9118V50.9116V50.9115V50.9114V50.9113V50.9112V50.9111V50.911V50.9109V50.9108V50.9107V50.9106V50.9105V50.9104V50.9103V50.9102V50.91V50.9099V50.9098V50.9097V50.9096V50.9095V50.9094V50.9093V50.9092V50.9091V6.72728C0.392871 3.05718 3.58317 0.075 7.5322 0.075C11.4812 0.075 14.6715 3.05718 14.6715 6.72728V26.5382ZM14.6754 50.9636C14.6754 59.5408 22.1311 66.4895 31.32 66.4895C40.5049 66.4895 47.9646 59.5408 47.9646 50.9636C47.9646 42.3865 40.5049 35.4377 31.32 35.4377C22.1351 35.4377 14.6754 42.3865 14.6754 50.9636Z" fill="#0A2864" stroke="#0A2864" stroke-width="0.15"/>
<path d="M67.0726 50.9638C67.0726 35.0428 80.9128 22.1297 97.9997 22.1297C115.087 22.1297 128.927 35.0428 128.927 50.9638C128.927 66.8848 115.087 79.7979 97.9997 79.7979C80.9128 79.7979 67.0726 66.8848 67.0726 50.9638ZM81.3551 50.9638C81.3551 59.5409 88.8108 66.4897 97.9997 66.4897C107.185 66.4897 114.644 59.541 114.644 50.9638C114.644 42.3866 107.185 35.4379 97.9997 35.4379C88.8147 35.4379 81.3551 42.3866 81.3551 50.9638Z" fill="#0A2864" stroke="#0A2864" stroke-width="0.15"/>
<path d="M148.039 26.5309V26.6623L148.152 26.5955C152.934 23.7731 158.598 22.1295 164.68 22.1295C181.767 22.1295 195.607 35.0426 195.607 50.9636C195.607 66.8846 181.767 79.7977 164.68 79.7977C147.593 79.7977 133.753 66.8846 133.753 50.9636C133.753 50.9144 133.755 50.8649 133.757 50.8138L133.757 50.8131C133.759 50.7626 133.761 50.7105 133.761 50.6582V6.72728C133.761 3.05718 136.951 0.075 140.9 0.075C144.849 0.075 148.039 3.05718 148.039 6.72728V26.5309ZM164.68 66.4895H164.755V66.4858C173.905 66.4481 181.324 59.5138 181.324 50.96C181.324 42.3826 173.787 35.4341 164.68 35.4341C155.573 35.4341 148.169 42.2623 148.039 50.737V50.7382V50.8341H148.035V50.9091V50.9092V50.9093V50.9094V50.9095V50.9096V50.9097V50.9098V50.9099V50.91V50.9102V50.9103V50.9104V50.9105V50.9106V50.9107V50.9108V50.9109V50.911V50.9111V50.9112V50.9113V50.9114V50.9115V50.9116V50.9118V50.9119V50.912V50.9121V50.9122V50.9123V50.9124V50.9125V50.9126V50.9127V50.9128V50.9129V50.913V50.9131V50.9132V50.9134V50.9135V50.9136V50.9137V50.9138V50.9139V50.914V50.9141V50.9142V50.9143V50.9144V50.9145V50.9146V50.9147V50.9148V50.915V50.9151V50.9152V50.9153V50.9154V50.9155V50.9156V50.9157V50.9158V50.9159V50.916V50.9161V50.9162V50.9163V50.9164V50.9165V50.9167V50.9168V50.9169V50.917V50.9171V50.9172V50.9173V50.9174V50.9175V50.9176V50.9177V50.9178V50.9179V50.918V50.9181V50.9183V50.9184V50.9185V50.9186V50.9187V50.9188V50.9189V50.919V50.9191V50.9192V50.9193V50.9194V50.9195V50.9196V50.9197V50.9199V50.92V50.9201V50.9202V50.9203V50.9204V50.9205V50.9206V50.9207V50.9208V50.9209V50.921V50.9211V50.9212V50.9213V50.9215V50.9216V50.9217V50.9218V50.9219V50.922V50.9221V50.9222V50.9223V50.9224V50.9225V50.9226V50.9227V50.9228V50.9229V50.923V50.9232V50.9233V50.9234V50.9235V50.9236V50.9237V50.9238V50.9239V50.924V50.9241V50.9242V50.9243V50.9244V50.9245V50.9246V50.9248V50.9249V50.925V50.9251V50.9252V50.9253V50.9254V50.9255V50.9256V50.9257V50.9258V50.9259V50.926V50.9261V50.9262V50.9263V50.9265V50.9266V50.9267V50.9268V50.9269V50.927V50.9271V50.9272V50.9273V50.9274V50.9275V50.9276V50.9277V50.9278V50.9279V50.9281V50.9282V50.9283V50.9284V50.9285V50.9286V50.9287V50.9288V50.9289V50.929V50.9291V50.9292V50.9293V50.9294V50.9295V50.9297V50.9298V50.9299V50.93V50.9301V50.9302V50.9303V50.9304V50.9305V50.9306V50.9307V50.9308V50.9309V50.931V50.9311V50.9313V50.9314V50.9315V50.9316V50.9317V50.9318V50.9319V50.932V50.9321V50.9322V50.9323V50.9324V50.9325V50.9326V50.9327V50.9328V50.933V50.9331V50.9332V50.9333V50.9334V50.9335V50.9336V50.9337V50.9338V50.9339V50.934V50.9341V50.9342V50.9343V50.9344V50.9346V50.9347V50.9348V50.9349V50.935V50.9351V50.9352V50.9353V50.9354V50.9355V50.9356V50.9357V50.9358V50.9359V50.936V50.9361V50.9363V50.9364V50.9365V50.9366V50.9367V50.9368V50.9369V50.937V50.9371V50.9372V50.9373V50.9374V50.9375V50.9376V50.9377V50.9379V50.938V50.9381V50.9382V50.9383V50.9384V50.9385V50.9386V50.9387V50.9388V50.9389V50.939V50.9391V50.9392V50.9393V50.9395V50.9396V50.9397V50.9398V50.9399V50.94V50.9401V50.9402V50.9403V50.9404V50.9405V50.9406V50.9407V50.9408V50.9409V50.9411V50.9412V50.9413V50.9414V50.9415V50.9416V50.9417V50.9418V50.9419V50.942V50.9421V50.9422V50.9423V50.9424V50.9425V50.9426V50.9428V50.9429V50.943V50.9431V50.9432V50.9433V50.9434V50.9435V50.9436V50.9437V50.9438V50.9439V50.944V50.9441V50.9442V50.9444V50.9445V50.9446V50.9447V50.9448V50.9449V50.945V50.9451V50.9452V50.9453V50.9454V50.9455V50.9456V50.9457V50.9458V50.946V50.9461V50.9462V50.9463V50.9464V50.9465V50.9466V50.9467V50.9468V50.9469V50.947V50.9471V50.9472V50.9473V50.9474V50.9475V50.9477V50.9478V50.9479V50.948V50.9481V50.9482V50.9483V50.9484V50.9485V50.9486V50.9487V50.9488V50.9489V50.949V50.9491V50.9493V50.9494V50.9495V50.9496V50.9497V50.9498V50.9499V50.95V50.9501V50.9502V50.9503V50.9504V50.9505V50.9506V50.9507V50.9509V50.951V50.9511V50.9512V50.9513V50.9514V50.9515V50.9516V50.9517V50.9518V50.9519V50.952V50.9521V50.9522V50.9523V50.9524V50.9526V50.9527V50.9528V50.9529V50.953V50.9531V50.9532V50.9533V50.9534V50.9535V50.9536V50.9537V50.9538V50.9539V50.954V50.9542V50.9543V50.9544V50.9545V50.9546V50.9547V50.9548V50.9549V50.955V50.9551V50.9552V50.9553V50.9554V50.9555V50.9556V50.9558V50.9559V50.956V50.9561V50.9562V50.9563V50.9564V50.9565V50.9566V50.9567V50.9568V50.9569V50.957V50.9571V50.9572V50.9574V50.9575V50.9576V50.9577V50.9578V50.9579V50.958V50.9581V50.9582V50.9583V50.9584V50.9585V50.9586V50.9587V50.9588V50.959V50.9591V50.9592V50.9593V50.9594V50.9595V50.9596V50.9597V50.9598V50.9599V50.96V50.9601V50.9602V50.9603V50.9604V50.9605V50.9607V50.9608V50.9609V50.961V50.9611V50.9612V50.9613V50.9614V50.9615V50.9616V50.9617V50.9618V50.9619V50.962V50.9621V50.9622V50.9624V50.9625V50.9626V50.9627V50.9628V50.9629V50.963V50.9631V50.9632V50.9633V50.9634V50.9635V50.9636C148.035 59.5408 155.491 66.4895 164.68 66.4895Z" fill="#0A2864" stroke="#0A2864" stroke-width="0.15"/>
<path d="M214.723 26.5309V26.6624L214.836 26.5955C219.617 23.7695 225.282 22.1295 231.36 22.1295C248.446 22.1295 262.287 35.0426 262.287 50.9636C262.287 66.8846 248.446 79.7977 231.36 79.7977C214.273 79.7977 200.432 66.8846 200.432 50.9636C200.432 50.8908 200.435 50.8187 200.438 50.7453L200.438 50.7432C200.441 50.671 200.444 50.5974 200.444 50.5236V6.72728C200.444 3.05718 203.634 0.075 207.583 0.075C211.532 0.075 214.723 3.05718 214.723 6.72728V26.5309ZM214.723 50.8341H214.715V50.9091V50.9092V50.9093V50.9094V50.9095V50.9096V50.9097V50.9098V50.9099V50.91V50.9102V50.9103V50.9104V50.9105V50.9106V50.9107V50.9108V50.9109V50.911V50.9111V50.9112V50.9113V50.9114V50.9115V50.9116V50.9118V50.9119V50.912V50.9121V50.9122V50.9123V50.9124V50.9125V50.9126V50.9127V50.9128V50.9129V50.913V50.9131V50.9132V50.9134V50.9135V50.9136V50.9137V50.9138V50.9139V50.914V50.9141V50.9142V50.9143V50.9144V50.9145V50.9146V50.9147V50.9148V50.915V50.9151V50.9152V50.9153V50.9154V50.9155V50.9156V50.9157V50.9158V50.9159V50.916V50.9161V50.9162V50.9163V50.9164V50.9165V50.9167V50.9168V50.9169V50.917V50.9171V50.9172V50.9173V50.9174V50.9175V50.9176V50.9177V50.9178V50.9179V50.918V50.9181V50.9183V50.9184V50.9185V50.9186V50.9187V50.9188V50.9189V50.919V50.9191V50.9192V50.9193V50.9194V50.9195V50.9196V50.9197V50.9199V50.92V50.9201V50.9202V50.9203V50.9204V50.9205V50.9206V50.9207V50.9208V50.9209V50.921V50.9211V50.9212V50.9213V50.9215V50.9216V50.9217V50.9218V50.9219V50.922V50.9221V50.9222V50.9223V50.9224V50.9225V50.9226V50.9227V50.9228V50.9229V50.923V50.9232V50.9233V50.9234V50.9235V50.9236V50.9237V50.9238V50.9239V50.924V50.9241V50.9242V50.9243V50.9244V50.9245V50.9246V50.9248V50.9249V50.925V50.9251V50.9252V50.9253V50.9254V50.9255V50.9256V50.9257V50.9258V50.9259V50.926V50.9261V50.9262V50.9263V50.9265V50.9266V50.9267V50.9268V50.9269V50.927V50.9271V50.9272V50.9273V50.9274V50.9275V50.9276V50.9277V50.9278V50.9279V50.9281V50.9282V50.9283V50.9284V50.9285V50.9286V50.9287V50.9288V50.9289V50.929V50.9291V50.9292V50.9293V50.9294V50.9295V50.9297V50.9298V50.9299V50.93V50.9301V50.9302V50.9303V50.9304V50.9305V50.9306V50.9307V50.9308V50.9309V50.931V50.9311V50.9313V50.9314V50.9315V50.9316V50.9317V50.9318V50.9319V50.932V50.9321V50.9322V50.9323V50.9324V50.9325V50.9326V50.9327V50.9328V50.933V50.9331V50.9332V50.9333V50.9334V50.9335V50.9336V50.9337V50.9338V50.9339V50.934V50.9341V50.9342V50.9343V50.9344V50.9346V50.9347V50.9348V50.9349V50.935V50.9351V50.9352V50.9353V50.9354V50.9355V50.9356V50.9357V50.9358V50.9359V50.936V50.9361V50.9363V50.9364V50.9365V50.9366V50.9367V50.9368V50.9369V50.937V50.9371V50.9372V50.9373V50.9374V50.9375V50.9376V50.9377V50.9379V50.938V50.9381V50.9382V50.9383V50.9384V50.9385V50.9386V50.9387V50.9388V50.9389V50.939V50.9391V50.9392V50.9393V50.9395V50.9396V50.9397V50.9398V50.9399V50.94V50.9401V50.9402V50.9403V50.9404V50.9405V50.9406V50.9407V50.9408V50.9409V50.9411V50.9412V50.9413V50.9414V50.9415V50.9416V50.9417V50.9418V50.9419V50.942V50.9421V50.9422V50.9423V50.9424V50.9425V50.9426V50.9428V50.9429V50.943V50.9431V50.9432V50.9433V50.9434V50.9435V50.9436V50.9437V50.9438V50.9439V50.944V50.9441V50.9442V50.9444V50.9445V50.9446V50.9447V50.9448V50.9449V50.945V50.9451V50.9452V50.9453V50.9454V50.9455V50.9456V50.9457V50.9458V50.946V50.9461V50.9462V50.9463V50.9464V50.9465V50.9466V50.9467V50.9468V50.9469V50.947V50.9471V50.9472V50.9473V50.9474V50.9475V50.9477V50.9478V50.9479V50.948V50.9481V50.9482V50.9483V50.9484V50.9485V50.9486V50.9487V50.9488V50.9489V50.949V50.9491V50.9493V50.9494V50.9495V50.9496V50.9497V50.9498V50.9499V50.95V50.9501V50.9502V50.9503V50.9504V50.9505V50.9506V50.9507V50.9509V50.951V50.9511V50.9512V50.9513V50.9514V50.9515V50.9516V50.9517V50.9518V50.9519V50.952V50.9521V50.9522V50.9523V50.9524V50.9526V50.9527V50.9528V50.9529V50.953V50.9531V50.9532V50.9533V50.9534V50.9535V50.9536V50.9537V50.9538V50.9539V50.954V50.9542V50.9543V50.9544V50.9545V50.9546V50.9547V50.9548V50.9549V50.955V50.9551V50.9552V50.9553V50.9554V50.9555V50.9556V50.9558V50.9559V50.956V50.9561V50.9562V50.9563V50.9564V50.9565V50.9566V50.9567V50.9568V50.9569V50.957V50.9571V50.9572V50.9574V50.9575V50.9576V50.9577V50.9578V50.9579V50.958V50.9581V50.9582V50.9583V50.9584V50.9585V50.9586V50.9587V50.9588V50.959V50.9591V50.9592V50.9593V50.9594V50.9595V50.9596V50.9597V50.9598V50.9599V50.96V50.9601V50.9602V50.9603V50.9604V50.9605V50.9607V50.9608V50.9609V50.961V50.9611V50.9612V50.9613V50.9614V50.9615V50.9616V50.9617V50.9618V50.9619V50.962V50.9621V50.9622V50.9624V50.9625V50.9626V50.9627V50.9628V50.9629V50.963V50.9631V50.9632V50.9633V50.9634V50.9635V50.9636C214.715 59.5408 222.171 66.4895 231.36 66.4895C240.544 66.4895 248.004 59.5408 248.004 50.9636C248.004 42.3861 240.419 35.4377 231.36 35.4377C222.3 35.4377 214.927 42.1929 214.723 50.6055V50.6073V50.8341Z" fill="#0A2864" stroke="#0A2864" stroke-width="0.15"/>
<path d="M325.905 29.0955L325.909 29.1662H325.925C325.925 29.1968 325.924 29.2268 325.923 29.258L325.923 29.2588C325.922 29.2902 325.921 29.3229 325.921 29.3566C325.921 29.3752 325.922 29.3935 325.923 29.4092L325.923 29.4102C325.924 29.4269 325.925 29.4411 325.925 29.4548C325.925 29.5011 325.922 29.5471 325.919 29.595C325.918 29.604 325.917 29.6131 325.917 29.6224C325.914 29.6613 325.911 29.7018 325.909 29.7427L325.909 29.7441C325.625 43.1129 315.592 54.2463 302.157 57.2143L302.098 57.2273V57.2875V73.273C302.098 76.9431 298.908 79.9253 294.959 79.9253C291.01 79.9253 287.819 76.9431 287.819 73.273V57.273V57.2129L287.761 57.1998C274.671 54.2717 264.825 43.5953 264.113 30.6689L264.114 30.6688L264.112 30.6585C264.035 30.2661 263.989 29.8637 263.989 29.4548C263.989 25.7856 267.311 22.8025 271.128 22.8025C274.945 22.8025 278.048 25.5938 278.248 29.0955L278.252 29.1662H278.323H278.353C278.354 37.7459 285.81 44.6898 294.998 44.6898C304.186 44.6898 311.641 37.7459 311.642 29.1662H311.661L311.665 29.0955C311.866 25.5938 314.968 22.8025 318.785 22.8025C322.603 22.8025 325.705 25.5938 325.905 29.0955Z" fill="#0A2864" stroke="#0A2864" stroke-width="0.15"/>
</svg>
