<svg width="73" height="47" viewBox="0 0 73 47" fill="none" xmlns="http://www.w3.org/2000/svg">
<path d="M49.8189 35.8084C43.6134 38.8454 35.8055 40.2772 27.9846 39.8124C20.1637 39.3476 12.9177 37.0211 7.72149 33.3066C2.5253 29.592 -0.230483 24.7686 0.0151108 19.8181C0.260704 14.8676 3.48921 10.1622 9.04344 6.65963C14.5987 3.1577 22.0617 1.12214 29.9134 0.967291C37.7651 0.812445 45.4154 2.54996 51.3068 5.82614C57.1983 9.10233 60.8882 13.6709 61.6254 18.602C62.3626 23.533 60.0916 28.4559 55.2749 32.3685L70.9221 42.234C71.4303 42.5315 71.8018 42.9099 71.9974 43.3294C72.1931 43.7488 72.2057 44.1938 72.0339 44.6174C71.8622 45.0409 71.5124 45.4275 71.0214 45.7362C70.5304 46.045 69.9165 46.2645 69.2442 46.3717C68.5731 46.4802 67.8681 46.4726 67.2033 46.3498C66.5385 46.227 65.9384 45.9936 65.4662 45.674L49.8189 35.8084ZM54.0396 20.426C54.0854 18.4905 53.5203 16.5687 52.3772 14.7722C51.2341 12.9757 49.5359 11.3404 47.3813 9.96153C45.2267 8.58264 42.6587 7.48765 39.8267 6.74024C36.9947 5.99283 33.9553 5.60794 30.8853 5.60794C27.8152 5.60794 24.7758 5.99283 21.9438 6.74024C19.1118 7.48765 16.5439 8.58264 14.3892 9.96153C12.2346 11.3404 10.5364 12.9757 9.39332 14.7722C8.25025 16.5687 7.68516 18.4905 7.73093 20.426C7.8216 24.2601 10.301 27.9178 14.6334 30.609C18.9658 33.3001 24.8035 34.8087 30.8853 34.8087C36.9671 34.8087 42.8047 33.3001 47.1371 30.609C51.4696 27.9178 53.9489 24.2601 54.0396 20.426Z" fill="white"/>
</svg>
