<svg width="1561" height="51" viewBox="0 0 1561 51" fill="none" xmlns="http://www.w3.org/2000/svg">
<ellipse cx="29.438" cy="25.5" rx="29.1934" ry="25.5" fill="#FF6100"/>
<path d="M17.0626 25.3427L35.0232 13.6856C35.3581 13.4683 35.7557 13.2958 36.1933 13.1782C36.6309 13.0606 37.0999 13 37.5736 13C38.5302 13 39.4476 13.2466 40.124 13.6856C40.4589 13.903 40.7246 14.1611 40.9058 14.4451C41.0871 14.7291 41.1804 15.0335 41.1804 15.341C41.1804 15.9618 40.8004 16.5572 40.124 16.9963L24.6779 26.998L40.124 36.9998C40.4607 37.2165 40.7279 37.4744 40.9103 37.7585C41.0926 38.0426 41.1865 38.3473 41.1865 38.6551C41.1865 38.9628 41.0926 39.2676 40.9103 39.5517C40.7279 39.8358 40.4607 40.0936 40.124 40.3104C39.79 40.5289 39.3928 40.7023 38.955 40.8207C38.5173 40.9391 38.0478 41 37.5736 41C37.0994 41 36.6299 40.9391 36.1921 40.8207C35.7544 40.7023 35.3571 40.5289 35.0232 40.3104L17.0626 28.6533C16.7259 28.4366 16.4587 28.1787 16.2763 27.8946C16.094 27.6105 16.0001 27.3058 16.0001 26.998C16.0001 26.6902 16.094 26.3855 16.2763 26.1014C16.4587 25.8173 16.7259 25.5594 17.0626 25.3427Z" fill="#FFF8EB"/>
<path d="M1559.95 25.3427L1542.12 13.6856C1541.79 13.4683 1541.39 13.2958 1540.96 13.1782C1540.52 13.0606 1540.06 13 1539.59 13C1538.64 13 1537.73 13.2466 1537.05 13.6856C1536.72 13.903 1536.46 14.1611 1536.28 14.4451C1536.1 14.7291 1536.01 15.0335 1536.01 15.341C1536.01 15.9618 1536.38 16.5572 1537.05 16.9963L1552.39 26.998L1537.05 36.9998C1536.72 37.2165 1536.46 37.4744 1536.27 37.7585C1536.09 38.0426 1536 38.3473 1536 38.6551C1536 38.9628 1536.09 39.2676 1536.27 39.5517C1536.46 39.8358 1536.72 40.0936 1537.05 40.3104C1537.39 40.5289 1537.78 40.7023 1538.21 40.8207C1538.65 40.9391 1539.12 41 1539.59 41C1540.06 41 1540.52 40.9391 1540.96 40.8207C1541.39 40.7023 1541.79 40.5289 1542.12 40.3104L1559.95 28.6533C1560.28 28.4366 1560.54 28.1787 1560.73 27.8946C1560.91 27.6105 1561 27.3058 1561 26.998C1561 26.6902 1560.91 26.3855 1560.73 26.1014C1560.54 25.8173 1560.28 25.5594 1559.95 25.3427Z" fill="#FFF8EB"/>
</svg>
