<svg width="73" height="46" viewBox="0 0 73 46" fill="none" xmlns="http://www.w3.org/2000/svg">
<path d="M49.8441 34.8507C43.6354 37.8876 35.8236 39.3194 27.9988 38.8546C20.1739 38.3898 12.9242 36.0634 7.72539 32.3488C2.52657 28.6343 -0.230599 23.8108 0.0151184 18.8603C0.260836 13.9098 3.49097 9.20441 9.04801 5.70187C14.606 2.19994 22.0728 0.164373 29.9285 0.00952731C37.7842 -0.145319 45.4383 1.59219 51.3328 4.86838C57.2272 8.14457 60.9189 12.7132 61.6565 17.6442C62.3941 22.5753 60.122 27.4981 55.3028 31.4107L70.958 41.2763C71.4664 41.5738 71.8381 41.9522 72.0338 42.3716C72.2296 42.7911 72.2422 43.236 72.0703 43.6596C71.8985 44.0832 71.5485 44.4697 71.0573 44.7785C70.5661 45.0872 69.9518 45.3068 69.2792 45.414C68.6078 45.5224 67.9024 45.5148 67.2373 45.3921C66.5721 45.2693 65.9717 45.0358 65.4993 44.7162L49.8441 34.8507ZM54.0669 19.4682C54.1127 17.5328 53.5473 15.6109 52.4037 13.8144C51.26 12.0179 49.5609 10.3827 47.4052 9.00377C45.2495 7.62488 42.6802 6.52988 39.8468 5.78248C37.0134 5.03507 33.9725 4.65017 30.9009 4.65017C27.8293 4.65017 24.7883 5.03507 21.9549 5.78248C19.1215 6.52988 16.5522 7.62488 14.3965 9.00377C12.2408 10.3827 10.5417 12.0179 9.39807 13.8144C8.25442 15.6109 7.68904 17.5328 7.73484 19.4682C7.82555 23.3023 10.3062 26.9601 14.6408 29.6512C18.9754 32.3424 24.816 33.8509 30.9009 33.8509C36.9857 33.8509 42.8264 32.3424 47.161 29.6512C51.4956 26.9601 53.9762 23.3023 54.0669 19.4682Z" fill="white"/>
</svg>
