<svg width="642" height="51" viewBox="0 0 642 51" fill="none" xmlns="http://www.w3.org/2000/svg">
<ellipse cx="29.3496" cy="25.5" rx="29.1934" ry="25.5" fill="#FF6100"/>
<path d="M640.474 23.6345L621.758 11.7019C621.409 11.4793 620.995 11.3028 620.539 11.1824C620.083 11.062 619.594 11 619.1 11C618.104 11 617.148 11.2525 616.443 11.7019C616.094 11.9244 615.817 12.1885 615.628 12.4793C615.439 12.77 615.342 13.0816 615.342 13.3963C615.342 14.0318 615.738 14.6413 616.443 15.0907L632.539 25.3289L616.443 35.5672C616.092 35.789 615.813 36.053 615.623 36.3438C615.433 36.6346 615.335 36.9466 615.335 37.2616C615.335 37.5767 615.433 37.8886 615.623 38.1794C615.813 38.4702 616.092 38.7342 616.443 38.956C616.791 39.1797 617.205 39.3573 617.661 39.4784C618.117 39.5996 618.606 39.662 619.1 39.662C619.595 39.662 620.084 39.5996 620.54 39.4784C620.996 39.3573 621.41 39.1797 621.758 38.956L640.474 27.0234C640.825 26.8015 641.104 26.5376 641.294 26.2468C641.484 25.9559 641.582 25.644 641.582 25.3289C641.582 25.0139 641.484 24.702 641.294 24.4111C641.104 24.1203 640.825 23.8564 640.474 23.6345Z" fill="#FFF8EB"/>
</svg>
