<svg width="82" height="46" viewBox="0 0 82 46" fill="none" xmlns="http://www.w3.org/2000/svg">
<path d="M55.9449 34.8507C48.9763 37.8876 40.2083 39.3194 31.4257 38.8546C22.6431 38.3898 14.5061 36.0634 8.67096 32.3488C2.83582 28.6343 -0.258824 23.8108 0.0169689 18.8603C0.292762 13.9098 3.91826 9.20441 10.1555 5.70187C16.3938 2.19994 24.7745 0.164373 33.5917 0.00952731C42.4089 -0.145319 50.9998 1.59219 57.6157 4.86838C64.2316 8.14457 68.3752 12.7132 69.2031 17.6442C70.0309 22.5753 67.4808 27.4981 62.0717 31.4107L79.643 41.2763C80.2137 41.5738 80.6308 41.9522 80.8505 42.3716C81.0703 42.7911 81.0844 43.236 80.8915 43.6596C80.6986 44.0832 80.3058 44.4697 79.7545 44.7785C79.2031 45.0872 78.5137 45.3068 77.7587 45.414C77.0052 45.5224 76.2135 45.5148 75.4669 45.3921C74.7203 45.2693 74.0465 45.0358 73.5162 44.7162L55.9449 34.8507ZM60.6845 19.4682C60.7359 17.5328 60.1013 15.6109 58.8177 13.8144C57.5341 12.0179 55.627 10.3827 53.2075 9.00377C50.7879 7.62488 47.9042 6.52988 44.724 5.78248C41.5438 5.03507 38.1306 4.65017 34.683 4.65017C31.2355 4.65017 27.8223 5.03507 24.6421 5.78248C21.4619 6.52988 18.5782 7.62488 16.1586 9.00377C13.7391 10.3827 11.832 12.0179 10.5484 13.8144C9.26473 15.6109 8.63016 17.5328 8.68156 19.4682C8.78337 23.3023 11.5676 26.9601 16.4328 29.6512C21.2979 32.3424 27.8534 33.8509 34.683 33.8509C41.5127 33.8509 48.0682 32.3424 52.9333 29.6512C57.7985 26.9601 60.5827 23.3023 60.6845 19.4682Z" fill="white"/>
</svg>
