<svg width="189" height="33" viewBox="0 0 189 33" fill="none" xmlns="http://www.w3.org/2000/svg">
<path d="M68.6801 10.947V11.0834L68.7952 11.0103C70.6287 9.84769 72.7988 9.1725 75.1301 9.1725C81.6752 9.1725 86.9801 14.4774 86.9801 21.0225C86.9801 27.5676 81.6752 32.8725 75.1301 32.8725C68.585 32.8725 63.2801 27.5676 63.2801 21.0225V21.0225V21.0224V21.0224V21.0223V21.0223V21.0222V21.0222V21.0221V21.0221V21.0221V21.022V21.022V21.0219V21.0219V21.0218V21.0218V21.0217V21.0217V21.0217V21.0216V21.0216V21.0215V21.0215V21.0214V21.0214V21.0214V21.0213V21.0213V21.0212V21.0212V21.0211V21.0211V21.021V21.021V21.021V21.0209V21.0209V21.0208V21.0208V21.0207V21.0207V21.0207V21.0206V21.0206V21.0205V21.0205V21.0204V21.0204V21.0203V21.0203V21.0203V21.0202V21.0202V21.0201V21.0201V21.02V21.02V21.0199V21.0199V21.0199V21.0198V21.0198V21.0197V21.0197V21.0196V21.0196V21.0196V21.0195V21.0195V21.0194V21.0194V21.0193V21.0193V21.0192V21.0192V21.0192V21.0191V21.0191V21.019V21.019V21.0189V21.0189V21.0189V21.0188V21.0188V21.0187V21.0187V21.0186V21.0186V21.0185V21.0185V21.0185V21.0184V21.0184V21.0183V21.0183V21.0182V21.0182V21.0181V21.0181V21.0181V21.018V21.018V21.0179V21.0179V21.0178V21.0178V21.0178V21.0177V21.0177V21.0176V21.0176V21.0175V21.0175V21.0174V21.0174V21.0174V21.0173V21.0173V21.0172V21.0172V21.0171V21.0171V21.017V21.017V21.017V21.0169V21.0169V21.0168V21.0168V21.0167V21.0167V21.0167V21.0166V21.0166V21.0165V21.0165V21.0164V21.0164V21.0163V21.0163V21.0163V21.0162V21.0162V21.0161V21.0161V21.016V21.016V21.0159V21.0159V21.0159V21.0158V21.0158V21.0157V21.0157V21.0156V21.0156V21.0156V21.0155V21.0155V21.0154V21.0154V21.0153V21.0153V21.0152V21.0152V21.0152V21.0151V21.0151V21.015V21.015V21.0149V21.0149V21.0149V21.0148V21.0148V21.0147V21.0147V21.0146V21.0146V21.0145V21.0145V21.0145V21.0144V21.0144V21.0143V21.0143V21.0142V21.0142V21.0141V21.0141V21.0141V21.014V21.014V21.0139V21.0139V21.0138V21.0138V21.0138V21.0137V21.0137V21.0136V21.0136V21.0135V21.0135V21.0134V21.0134V21.0134V21.0133V21.0133V21.0132V21.0132V21.0131V21.0131V21.0131V21.013V21.013V21.0129V21.0129V21.0128V21.0128V21.0127V21.0127V21.0127V21.0126V21.0126V21.0125V21.0125V21.0124V21.0124V21.0123V21.0123V21.0123V21.0122V21.0122V21.0121V21.0121V21.012V21.012V21.012V21.0119V21.0119V21.0118V21.0118V21.0117V21.0117V21.0116V21.0116V21.0116V21.0115V21.0115V21.0114V21.0114V21.0113V21.0113V21.0112V21.0112V21.0112V21.0111V21.0111V21.011V21.011V21.0109V21.0109V21.0109V21.0108V21.0108V21.0107V21.0107V21.0106V21.0106V21.0105V21.0105V21.0105V21.0104V21.0104V21.0103V21.0103V21.0102V21.0102V21.0101V21.0101V21.0101V21.01V21.01V21.0099V21.0099V21.0098V21.0098V21.0098V21.0097V21.0097V21.0096V21.0096V21.0095V21.0095V21.0094V21.0094V21.0094V21.0093V21.0093V21.0092V21.0092V21.0091V21.0091V21.0091V21.009V21.009V21.0089V21.0089V21.0088V21.0088V21.0087V21.0087V21.0087V21.0086V21.0086V21.0085V21.0085V21.0084V21.0084V21.0083V21.0083V21.0083V21.0082V21.0082V21.0081V21.0081V21.008V21.008V21.008V21.0079V21.0079V21.0078V21.0078V21.0077V21.0077V21.0076V21.0076V21.0076V21.0075V21.0075V21.0074V21.0074V21.0073V21.0073V21.0072V21.0072V21.0072V21.0071V21.0071V21.007V21.007V21.0069V21.0069V21.0069V21.0068V21.0068V21.0067V21.0067V21.0066V21.0066V21.0065V21.0065V21.0065V21.0064V21.0064V21.0063V21.0063V21.0062V21.0062V21.0062V21.0061V21.0061V21.006V21.006V21.0059V21.0059V21.0058V21.0058V21.0058V21.0057V21.0057V21.0056V21.0056V21.0055V21.0055V21.0054V21.0054V21.0054V21.0053V21.0053V21.0052V21.0052V21.0051V21.0051V21.0051V21.005V21.005V21.0049V21.0049V21.0048V21.0048V21.0047V21.0047V21.0047V21.0046V21.0046V21.0045V21.0045V21.0044V21.0044V21.0043V21.0043V21.0043V21.0042V21.0042V21.0041V21.0041V21.004V21.004V21.004V21.0039V21.0039V21.0038V21.0038V21.0037V21.0037V21.0036V21.0036V21.0036V21.0035V21.0035V21.0034V21.0034V21.0033V21.0033V21.0033V21.0032V21.0032V21.0031V21.0031V21.003V21.003V21.0029V21.0029V21.0029V21.0028V21.0028V21.0027V21.0027V21.0026V21.0026V21.0025V21.0025V21.0025V21.0024V21.0024V21.0023V21.0023V21.0022V21.0022V21.0022V21.0021V21.0021V21.002V21.002V21.0019V21.0019V21.0018V21.0018V21.0018V21.0017V21.0017V21.0016V21.0016V21.0015V21.0015V21.0014V21.0014V21.0014V21.0013V21.0013V21.0012V21.0012V21.0011V21.0011V21.0011V21.001V21.001V21.0009V21.0009V21.0008V21.0008V21.0007V21.0007V21.0007V21.0006V21.0006V21.0005V21.0005V21.0004V21.0004V21.0003V21.0003V21.0003V21.0002V21.0002V21.0001V21.0001V21V21V2.775C63.2801 1.28342 64.4885 0.075 65.9801 0.075C67.4717 0.075 68.6801 1.28342 68.6801 2.775V10.947ZM68.6816 21.0225C68.6816 24.5829 71.5681 27.471 75.1301 27.471C78.6905 27.471 81.5786 24.5829 81.5786 21.0225C81.5786 17.4621 78.6905 14.574 75.1301 14.574C71.5697 14.574 68.6816 17.4621 68.6816 21.0225Z" fill="#0A2864" stroke="#0A2864" stroke-width="0.15"/>
<path d="M88.9285 21.0225C88.9285 14.4775 94.2334 9.17253 100.779 9.17253C107.324 9.17253 112.629 14.4775 112.629 21.0225C112.629 27.5676 107.324 32.8725 100.779 32.8725C94.2334 32.8725 88.9285 27.5676 88.9285 21.0225ZM94.33 21.0225C94.33 24.5829 97.2166 27.471 100.779 27.471C104.339 27.471 107.227 24.583 107.227 21.0225C107.227 17.4621 104.339 14.574 100.779 14.574C97.2181 14.574 94.33 17.4621 94.33 21.0225Z" fill="#0A2864" stroke="#0A2864" stroke-width="0.15"/>
<path d="M119.98 10.9441V11.0803L120.095 11.0074C121.927 9.84775 124.097 9.17256 126.427 9.17256C132.972 9.17256 138.277 14.4775 138.277 21.0226C138.277 27.5676 132.972 32.8726 126.427 32.8726C119.882 32.8726 114.577 27.5676 114.577 21.0226C114.577 21.0031 114.578 20.9835 114.578 20.9622L114.578 20.9616C114.579 20.941 114.58 20.9189 114.58 20.8966V2.77506C114.58 1.28348 115.788 0.075061 117.28 0.075061C118.772 0.075061 119.98 1.28348 119.98 2.77506V10.9441ZM126.427 27.4711H126.502V27.4691C130.028 27.4289 132.875 24.5564 132.875 21.0211C132.875 17.4604 129.957 14.5726 126.427 14.5726C122.898 14.5726 120.032 17.4087 119.98 20.9251H119.978V21.0001V21.0001V21.0001V21.0002V21.0002V21.0003V21.0003V21.0004V21.0004V21.0005V21.0005V21.0005V21.0006V21.0006V21.0007V21.0007V21.0008V21.0008V21.0009V21.0009V21.0009V21.001V21.001V21.0011V21.0011V21.0012V21.0012V21.0012V21.0013V21.0013V21.0014V21.0014V21.0015V21.0015V21.0016V21.0016V21.0016V21.0017V21.0017V21.0018V21.0018V21.0019V21.0019V21.0019V21.002V21.002V21.0021V21.0021V21.0022V21.0022V21.0023V21.0023V21.0023V21.0024V21.0024V21.0025V21.0025V21.0026V21.0026V21.0027V21.0027V21.0027V21.0028V21.0028V21.0029V21.0029V21.003V21.003V21.003V21.0031V21.0031V21.0032V21.0032V21.0033V21.0033V21.0034V21.0034V21.0034V21.0035V21.0035V21.0036V21.0036V21.0037V21.0037V21.0038V21.0038V21.0038V21.0039V21.0039V21.004V21.004V21.0041V21.0041V21.0041V21.0042V21.0042V21.0043V21.0043V21.0044V21.0044V21.0045V21.0045V21.0045V21.0046V21.0046V21.0047V21.0047V21.0048V21.0048V21.0049V21.0049V21.0049V21.005V21.005V21.0051V21.0051V21.0052V21.0052V21.0052V21.0053V21.0053V21.0054V21.0054V21.0055V21.0055V21.0056V21.0056V21.0056V21.0057V21.0057V21.0058V21.0058V21.0059V21.0059V21.0059V21.006V21.006V21.0061V21.0061V21.0062V21.0062V21.0063V21.0063V21.0063V21.0064V21.0064V21.0065V21.0065V21.0066V21.0066V21.0067V21.0067V21.0067V21.0068V21.0068V21.0069V21.0069V21.007V21.007V21.007V21.0071V21.0071V21.0072V21.0072V21.0073V21.0073V21.0074V21.0074V21.0074V21.0075V21.0075V21.0076V21.0076V21.0077V21.0077V21.0077V21.0078V21.0078V21.0079V21.0079V21.008V21.008V21.0081V21.0081V21.0081V21.0082V21.0082V21.0083V21.0083V21.0084V21.0084V21.0085V21.0085V21.0085V21.0086V21.0086V21.0087V21.0087V21.0088V21.0088V21.0088V21.0089V21.0089V21.009V21.009V21.0091V21.0091V21.0092V21.0092V21.0092V21.0093V21.0093V21.0094V21.0094V21.0095V21.0095V21.0096V21.0096V21.0096V21.0097V21.0097V21.0098V21.0098V21.0099V21.0099V21.0099V21.01V21.01V21.0101V21.0101V21.0102V21.0102V21.0103V21.0103V21.0103V21.0104V21.0104V21.0105V21.0105V21.0106V21.0106V21.0107V21.0107V21.0107V21.0108V21.0108V21.0109V21.0109V21.011V21.011V21.011V21.0111V21.0111V21.0112V21.0112V21.0113V21.0113V21.0114V21.0114V21.0114V21.0115V21.0115V21.0116V21.0116V21.0117V21.0117V21.0117V21.0118V21.0118V21.0119V21.0119V21.012V21.012V21.0121V21.0121V21.0121V21.0122V21.0122V21.0123V21.0123V21.0124V21.0124V21.0125V21.0125V21.0125V21.0126V21.0126V21.0127V21.0127V21.0128V21.0128V21.0128V21.0129V21.0129V21.013V21.013V21.0131V21.0131V21.0132V21.0132V21.0132V21.0133V21.0133V21.0134V21.0134V21.0135V21.0135V21.0135V21.0136V21.0136V21.0137V21.0137V21.0138V21.0138V21.0139V21.0139V21.0139V21.014V21.014V21.0141V21.0141V21.0142V21.0142V21.0143V21.0143V21.0143V21.0144V21.0144V21.0145V21.0145V21.0146V21.0146V21.0146V21.0147V21.0147V21.0148V21.0148V21.0149V21.0149V21.015V21.015V21.015V21.0151V21.0151V21.0152V21.0152V21.0153V21.0153V21.0154V21.0154V21.0154V21.0155V21.0155V21.0156V21.0156V21.0157V21.0157V21.0157V21.0158V21.0158V21.0159V21.0159V21.016V21.016V21.0161V21.0161V21.0161V21.0162V21.0162V21.0163V21.0163V21.0164V21.0164V21.0165V21.0165V21.0165V21.0166V21.0166V21.0167V21.0167V21.0168V21.0168V21.0168V21.0169V21.0169V21.017V21.017V21.0171V21.0171V21.0172V21.0172V21.0172V21.0173V21.0173V21.0174V21.0174V21.0175V21.0175V21.0175V21.0176V21.0176V21.0177V21.0177V21.0178V21.0178V21.0179V21.0179V21.0179V21.018V21.018V21.0181V21.0181V21.0182V21.0182V21.0183V21.0183V21.0183V21.0184V21.0184V21.0185V21.0185V21.0186V21.0186V21.0186V21.0187V21.0187V21.0188V21.0188V21.0189V21.0189V21.019V21.019V21.019V21.0191V21.0191V21.0192V21.0192V21.0193V21.0193V21.0194V21.0194V21.0194V21.0195V21.0195V21.0196V21.0196V21.0197V21.0197V21.0197V21.0198V21.0198V21.0199V21.0199V21.02V21.02V21.0201V21.0201V21.0201V21.0202V21.0202V21.0203V21.0203V21.0204V21.0204V21.0204V21.0205V21.0205V21.0206V21.0206V21.0207V21.0207V21.0208V21.0208V21.0208V21.0209V21.0209V21.021V21.021V21.0211V21.0211V21.0212V21.0212V21.0212V21.0213V21.0213V21.0214V21.0214V21.0215V21.0215V21.0215V21.0216V21.0216V21.0217V21.0217V21.0218V21.0218V21.0219V21.0219V21.0219V21.022V21.022V21.0221V21.0221V21.0222V21.0222V21.0223V21.0223V21.0223V21.0224V21.0224V21.0225V21.0225V21.0226C119.978 24.583 122.865 27.4711 126.427 27.4711Z" fill="#0A2864" stroke="#0A2864" stroke-width="0.15"/>
<path d="M145.63 10.9441V11.0804L145.745 11.0074C147.577 9.84627 149.747 9.17256 152.076 9.17256C158.621 9.17256 163.926 14.4775 163.926 21.0226C163.926 27.5676 158.621 32.8726 152.076 32.8726C145.531 32.8726 140.226 27.5676 140.226 21.0226C140.226 20.9934 140.227 20.9644 140.228 20.934L140.228 20.9329C140.229 20.9033 140.23 20.8723 140.23 20.8411V2.77506C140.23 1.28348 141.439 0.075061 142.93 0.075061C144.422 0.075061 145.63 1.28348 145.63 2.77506V10.9441ZM145.63 20.9251H145.627V21.0001V21.0001V21.0001V21.0002V21.0002V21.0003V21.0003V21.0004V21.0004V21.0005V21.0005V21.0005V21.0006V21.0006V21.0007V21.0007V21.0008V21.0008V21.0009V21.0009V21.0009V21.001V21.001V21.0011V21.0011V21.0012V21.0012V21.0012V21.0013V21.0013V21.0014V21.0014V21.0015V21.0015V21.0016V21.0016V21.0016V21.0017V21.0017V21.0018V21.0018V21.0019V21.0019V21.0019V21.002V21.002V21.0021V21.0021V21.0022V21.0022V21.0023V21.0023V21.0023V21.0024V21.0024V21.0025V21.0025V21.0026V21.0026V21.0027V21.0027V21.0027V21.0028V21.0028V21.0029V21.0029V21.003V21.003V21.003V21.0031V21.0031V21.0032V21.0032V21.0033V21.0033V21.0034V21.0034V21.0034V21.0035V21.0035V21.0036V21.0036V21.0037V21.0037V21.0038V21.0038V21.0038V21.0039V21.0039V21.004V21.004V21.0041V21.0041V21.0041V21.0042V21.0042V21.0043V21.0043V21.0044V21.0044V21.0045V21.0045V21.0045V21.0046V21.0046V21.0047V21.0047V21.0048V21.0048V21.0049V21.0049V21.0049V21.005V21.005V21.0051V21.0051V21.0052V21.0052V21.0052V21.0053V21.0053V21.0054V21.0054V21.0055V21.0055V21.0056V21.0056V21.0056V21.0057V21.0057V21.0058V21.0058V21.0059V21.0059V21.0059V21.006V21.006V21.0061V21.0061V21.0062V21.0062V21.0063V21.0063V21.0063V21.0064V21.0064V21.0065V21.0065V21.0066V21.0066V21.0067V21.0067V21.0067V21.0068V21.0068V21.0069V21.0069V21.007V21.007V21.007V21.0071V21.0071V21.0072V21.0072V21.0073V21.0073V21.0074V21.0074V21.0074V21.0075V21.0075V21.0076V21.0076V21.0077V21.0077V21.0077V21.0078V21.0078V21.0079V21.0079V21.008V21.008V21.0081V21.0081V21.0081V21.0082V21.0082V21.0083V21.0083V21.0084V21.0084V21.0085V21.0085V21.0085V21.0086V21.0086V21.0087V21.0087V21.0088V21.0088V21.0088V21.0089V21.0089V21.009V21.009V21.0091V21.0091V21.0092V21.0092V21.0092V21.0093V21.0093V21.0094V21.0094V21.0095V21.0095V21.0096V21.0096V21.0096V21.0097V21.0097V21.0098V21.0098V21.0099V21.0099V21.0099V21.01V21.01V21.0101V21.0101V21.0102V21.0102V21.0103V21.0103V21.0103V21.0104V21.0104V21.0105V21.0105V21.0106V21.0106V21.0107V21.0107V21.0107V21.0108V21.0108V21.0109V21.0109V21.011V21.011V21.011V21.0111V21.0111V21.0112V21.0112V21.0113V21.0113V21.0114V21.0114V21.0114V21.0115V21.0115V21.0116V21.0116V21.0117V21.0117V21.0117V21.0118V21.0118V21.0119V21.0119V21.012V21.012V21.0121V21.0121V21.0121V21.0122V21.0122V21.0123V21.0123V21.0124V21.0124V21.0125V21.0125V21.0125V21.0126V21.0126V21.0127V21.0127V21.0128V21.0128V21.0128V21.0129V21.0129V21.013V21.013V21.0131V21.0131V21.0132V21.0132V21.0132V21.0133V21.0133V21.0134V21.0134V21.0135V21.0135V21.0135V21.0136V21.0136V21.0137V21.0137V21.0138V21.0138V21.0139V21.0139V21.0139V21.014V21.014V21.0141V21.0141V21.0142V21.0142V21.0143V21.0143V21.0143V21.0144V21.0144V21.0145V21.0145V21.0146V21.0146V21.0146V21.0147V21.0147V21.0148V21.0148V21.0149V21.0149V21.015V21.015V21.015V21.0151V21.0151V21.0152V21.0152V21.0153V21.0153V21.0154V21.0154V21.0154V21.0155V21.0155V21.0156V21.0156V21.0157V21.0157V21.0157V21.0158V21.0158V21.0159V21.0159V21.016V21.016V21.0161V21.0161V21.0161V21.0162V21.0162V21.0163V21.0163V21.0164V21.0164V21.0165V21.0165V21.0165V21.0166V21.0166V21.0167V21.0167V21.0168V21.0168V21.0168V21.0169V21.0169V21.017V21.017V21.0171V21.0171V21.0172V21.0172V21.0172V21.0173V21.0173V21.0174V21.0174V21.0175V21.0175V21.0175V21.0176V21.0176V21.0177V21.0177V21.0178V21.0178V21.0179V21.0179V21.0179V21.018V21.018V21.0181V21.0181V21.0182V21.0182V21.0183V21.0183V21.0183V21.0184V21.0184V21.0185V21.0185V21.0186V21.0186V21.0186V21.0187V21.0187V21.0188V21.0188V21.0189V21.0189V21.019V21.019V21.019V21.0191V21.0191V21.0192V21.0192V21.0193V21.0193V21.0194V21.0194V21.0194V21.0195V21.0195V21.0196V21.0196V21.0197V21.0197V21.0197V21.0198V21.0198V21.0199V21.0199V21.02V21.02V21.0201V21.0201V21.0201V21.0202V21.0202V21.0203V21.0203V21.0204V21.0204V21.0204V21.0205V21.0205V21.0206V21.0206V21.0207V21.0207V21.0208V21.0208V21.0208V21.0209V21.0209V21.021V21.021V21.0211V21.0211V21.0212V21.0212V21.0212V21.0213V21.0213V21.0214V21.0214V21.0215V21.0215V21.0215V21.0216V21.0216V21.0217V21.0217V21.0218V21.0218V21.0219V21.0219V21.0219V21.022V21.022V21.0221V21.0221V21.0222V21.0222V21.0223V21.0223V21.0223V21.0224V21.0224V21.0225V21.0225V21.0226C145.627 24.583 148.514 27.4711 152.076 27.4711C155.636 27.4711 158.524 24.583 158.524 21.0226C158.524 17.4618 155.588 14.5741 152.076 14.5741C148.564 14.5741 145.709 17.3817 145.63 20.8739L145.63 20.8739V20.8756V20.9251Z" fill="#0A2864" stroke="#0A2864" stroke-width="0.15"/>
<path d="M188.397 12.0041L188.401 12.0751H188.403C188.403 12.086 188.403 12.0976 188.403 12.1096C188.403 12.1184 188.403 12.127 188.403 12.1333L188.404 12.134C188.404 12.1411 188.404 12.1457 188.404 12.1501C188.404 12.1677 188.403 12.1855 188.402 12.2051C188.402 12.2087 188.401 12.2124 188.401 12.2161C188.4 12.2322 188.399 12.2497 188.398 12.2673L188.398 12.2686C188.289 17.7642 184.444 22.3388 179.297 23.5581L179.239 23.5717V23.6311V30.2251C179.239 31.7166 178.031 32.9251 176.539 32.9251C175.048 32.9251 173.839 31.7166 173.839 30.2251V23.6251V23.5659L173.782 23.5521C168.767 22.3492 164.993 17.9624 164.721 12.6487L164.721 12.6487L164.719 12.639C164.69 12.4792 164.673 12.3158 164.673 12.1501C164.673 10.6594 165.931 9.45006 167.373 9.45006C168.814 9.45006 169.989 10.581 170.065 12.0041L170.069 12.0751H170.106C170.13 15.6163 173.007 18.4786 176.554 18.4786C180.101 18.4786 182.978 15.6163 183.002 12.0751H183.008L183.012 12.0041C183.087 10.581 184.262 9.45006 185.704 9.45006C187.146 9.45006 188.321 10.581 188.397 12.0041Z" fill="#0A2864" stroke="#0A2864" stroke-width="0.15"/>
<path d="M53.082 20.2077C52.998 19.8564 52.8375 19.5502 52.5991 19.289C52.4086 18.9947 52.1566 18.7635 51.8416 18.5924C51.2147 18.2606 50.4557 18.0954 49.7613 18.3206C49.0939 18.5368 48.5059 18.9422 48.1474 19.5622C47.8715 20.0411 47.567 20.502 47.24 20.9479C46.5786 21.7616 45.8361 22.5032 45.0232 23.1638C44.2118 23.7598 43.3418 24.2718 42.4254 24.6876C41.5765 25.0194 40.6976 25.2656 39.7991 25.4158C38.7837 25.5223 37.7608 25.5133 36.7469 25.4037C35.715 25.2401 34.6861 24.9834 33.7081 24.6126C33.2477 24.3949 32.8172 24.1306 32.4078 23.8244C31.4418 23.0617 30.4879 22.266 29.6 21.4103L33.3737 16.2188L36.3584 12.1127C37.3573 10.7376 37.7623 9.0546 37.4983 7.37465C37.2329 5.6947 36.3299 4.21742 34.956 3.21755C33.8611 2.42036 32.5682 2 31.2169 2C29.42 2 27.7057 2.77017 26.5087 4.0853C25.3193 2.86625 23.6755 2.15764 21.9491 2.15764C20.6082 2.15764 19.3229 2.5735 18.2294 3.36168C15.3857 5.41696 14.7407 9.4044 16.7941 12.2524L19.6348 16.1918C19.6348 16.1918 19.6348 16.1948 19.6363 16.1948L23.4655 21.5079C22.6076 22.3261 21.6942 23.0902 20.7657 23.8214C20.3533 24.1291 19.9213 24.3949 19.4578 24.6141C18.4784 24.9849 17.451 25.2431 16.4176 25.4067C15.4112 25.5163 14.3973 25.5284 13.3923 25.4233C12.4849 25.2731 11.597 25.0254 10.7406 24.6921C9.82415 24.2763 8.95422 23.7643 8.14129 23.1683C7.32835 22.5077 6.58742 21.7676 5.92747 20.9554C5.6005 20.5095 5.29453 20.0471 5.01855 19.5667C4.68108 18.9797 4.05563 18.5038 3.40468 18.3251C3.04621 18.2125 2.68624 18.196 2.32777 18.2771C1.9678 18.2936 1.63333 18.4002 1.32436 18.5984C0.748406 18.9707 0.239948 19.5247 0.0839613 20.2138C-0.0780252 20.9254 -0.0150305 21.652 0.355439 22.2961C0.886394 23.2179 1.52384 24.0751 2.20178 24.8948C2.74474 25.5524 3.34469 26.1634 3.99263 26.7189C4.79507 27.408 5.653 28.0565 6.56192 28.6015C7.47384 29.148 8.45026 29.5834 9.44168 29.9602C10.2351 30.2604 11.0555 30.4871 11.891 30.6283C13.1104 30.8339 14.3403 30.951 15.5762 30.885C16.8406 30.8174 18.1155 30.6283 19.3424 30.3115C19.8373 30.1839 20.3278 30.0337 20.8092 29.8596C21.4932 29.6119 22.1861 29.3356 22.8116 28.9603C23.4715 28.5625 24.0685 28.061 24.6639 27.5746C25.1094 27.2113 25.5533 26.8465 25.9913 26.4742C26.1893 26.306 26.3858 26.1349 26.5807 25.9637C26.6722 26.0433 26.7622 26.1259 26.8537 26.2039C27.7881 27.0116 28.7451 27.8043 29.735 28.543C30.7249 29.2816 31.9023 29.7395 33.0752 30.1013C34.2946 30.4781 35.5485 30.6898 36.8159 30.8249C37.8628 30.936 38.9217 30.9375 39.9671 30.8114C41.0455 30.6808 42.1014 30.5067 43.1364 30.1689C44.1413 29.8401 45.1312 29.4167 46.0611 28.9123C47 28.4033 47.8505 27.7788 48.6874 27.1182C49.4313 26.5312 50.1198 25.8736 50.7407 25.1575C51.5087 24.2703 52.2211 23.3154 52.8075 22.2976C53.1585 21.688 53.2665 20.8953 53.079 20.2153L53.082 20.2077ZM20.9502 7.13294C21.2457 6.91976 21.5907 6.80716 21.9491 6.80716C22.5086 6.80716 23.0155 7.06688 23.3425 7.51877L24.6354 9.31283C24.6354 9.31283 24.6399 9.31733 24.6414 9.32033C24.6744 9.36537 24.7104 9.40891 24.7479 9.45245C24.7629 9.47046 24.7764 9.48848 24.7914 9.50499C24.8184 9.53502 24.8469 9.56204 24.8754 9.59057C24.9039 9.61909 24.9309 9.64912 24.9609 9.67464C24.9774 9.68965 24.9954 9.70316 25.0134 9.71818C25.0569 9.75571 25.1004 9.79174 25.1454 9.82477C25.1484 9.82627 25.1499 9.82927 25.1529 9.83077C25.1664 9.83978 25.1799 9.84879 25.1934 9.8578C25.2414 9.89083 25.2879 9.92235 25.3373 9.95238C25.3613 9.96739 25.3868 9.9794 25.4123 9.99291C25.4528 10.0154 25.4933 10.038 25.5353 10.0575C25.5698 10.074 25.6043 10.0875 25.6388 10.101C25.6718 10.1145 25.7063 10.1295 25.7408 10.1415C25.7813 10.1566 25.8233 10.1686 25.8638 10.1806C25.8938 10.1896 25.9238 10.1986 25.9538 10.2061C25.9973 10.2166 26.0393 10.2256 26.0828 10.2331C26.1128 10.2391 26.1443 10.2451 26.1743 10.2496C26.2148 10.2556 26.2568 10.2601 26.2973 10.2631C26.3318 10.2661 26.3663 10.2707 26.4008 10.2722C26.4368 10.2737 26.4728 10.2737 26.5103 10.2737C26.5507 10.2737 26.5897 10.2737 26.6302 10.2722C26.6617 10.2707 26.6932 10.2677 26.7232 10.2646C26.7682 10.2601 26.8117 10.2571 26.8567 10.2496C26.8837 10.2451 26.9107 10.2406 26.9392 10.2346C26.9857 10.2256 27.0322 10.2166 27.0787 10.2061C27.1057 10.2001 27.1327 10.1911 27.1597 10.1836C27.2047 10.1716 27.2482 10.1581 27.2917 10.143C27.3232 10.1325 27.3532 10.119 27.3847 10.107C27.4222 10.092 27.4597 10.077 27.4972 10.0605C27.5362 10.0425 27.5752 10.0214 27.6142 10.0004C27.6412 9.98541 27.6697 9.9719 27.6966 9.95688C27.7446 9.92836 27.7911 9.89683 27.8376 9.8653C27.8526 9.85479 27.8676 9.84729 27.8826 9.83678C27.8856 9.83528 27.8871 9.83227 27.8901 9.83077C27.9351 9.79774 27.9771 9.76171 28.0206 9.72568C28.0386 9.71067 28.0581 9.69566 28.0761 9.68064C28.1061 9.65362 28.1331 9.6251 28.1616 9.59657C28.1901 9.56805 28.2201 9.54102 28.2471 9.511C28.2621 9.49448 28.2771 9.47497 28.2921 9.45695C28.3281 9.41341 28.3641 9.37138 28.3971 9.32634C28.3986 9.32333 28.4016 9.32183 28.4031 9.31883L29.831 7.35363C30.1564 6.90474 30.6634 6.64802 31.2184 6.64802C31.5798 6.64802 31.9278 6.76212 32.2233 6.9768C32.5937 7.24554 32.8367 7.64338 32.9072 8.09527C32.9792 8.54716 32.8697 9.00056 32.6012 9.36987L26.5042 17.7591L20.5677 9.52301C20.0143 8.75584 20.1883 7.68242 20.9517 7.12994L20.9502 7.13294Z" fill="#0A2864"/>
</svg>
