<svg width="71" height="46" viewBox="0 0 71 46" fill="none" xmlns="http://www.w3.org/2000/svg">
<path d="M49.0134 34.8507C42.9082 37.8876 35.2265 39.3194 27.5321 38.8546C19.8377 38.3898 12.7088 36.0634 7.59664 32.3488C2.48446 28.6343 -0.226756 23.8108 0.0148665 18.8603C0.256489 13.9098 3.43279 9.20441 8.89721 5.70187C14.3626 2.19994 21.705 0.164373 29.4297 0.00952731C37.1545 -0.145319 44.681 1.59219 50.4772 4.86838C56.2734 8.14457 59.9036 12.7132 60.6289 17.6442C61.3542 22.5753 59.12 27.4981 54.3811 31.4107L69.7754 41.2763C70.2753 41.5738 70.6408 41.9522 70.8333 42.3716C71.0258 42.7911 71.0382 43.236 70.8692 43.6596C70.7002 44.0832 70.356 44.4697 69.873 44.7785C69.39 45.0872 68.7859 45.3068 68.1245 45.414C67.4643 45.5224 66.7707 45.5148 66.1166 45.3921C65.4626 45.2693 64.8722 45.0358 64.4076 44.7162L49.0134 34.8507ZM53.1658 19.4682C53.2108 17.5328 52.6549 15.6109 51.5303 13.8144C50.4057 12.0179 48.7349 10.3827 46.6151 9.00377C44.4953 7.62488 41.9689 6.52988 39.1827 5.78248C36.3965 5.03507 33.4063 4.65017 30.3859 4.65017C27.3654 4.65017 24.3752 5.03507 21.589 5.78248C18.8028 6.52988 16.2764 7.62488 14.1566 9.00377C12.0368 10.3827 10.366 12.0179 9.24143 13.8144C8.11684 15.6109 7.56089 17.5328 7.60592 19.4682C7.69512 23.3023 10.1344 26.9601 14.3968 29.6512C18.6591 32.3424 24.4024 33.8509 30.3859 33.8509C36.3693 33.8509 42.1126 32.3424 46.375 29.6512C50.6373 26.9601 53.0766 23.3023 53.1658 19.4682Z" fill="white"/>
</svg>
