<svg width="156" height="95" viewBox="0 0 156 95" fill="none" xmlns="http://www.w3.org/2000/svg">
<path d="M154.898 59.4345C154.653 58.2969 154.185 57.3052 153.489 56.4594C152.933 55.5065 152.198 54.7579 151.279 54.2037C149.449 53.1293 147.235 52.5946 145.208 53.3238C143.261 54.0238 141.545 55.3364 140.499 57.3441C139.694 58.8949 138.805 60.3873 137.851 61.8311C135.921 64.466 133.754 66.8675 131.382 69.0065C129.014 70.9365 126.476 72.5942 123.801 73.9408C121.324 75.0151 118.759 75.8124 116.138 76.2985C113.175 76.6437 110.19 76.6145 107.231 76.2596C104.22 75.7297 101.217 74.8984 98.3636 73.6977C97.0199 72.9928 95.7638 72.1372 94.5689 71.1455C91.7503 68.6759 88.9667 66.0994 86.3756 63.3284L97.3876 46.5179L106.097 33.2221C109.012 28.7691 110.194 23.3195 109.424 17.8797C108.649 12.4399 106.014 7.65629 102.005 4.41863C98.81 1.83725 95.0373 0.476074 91.0938 0.476074C85.8504 0.476074 80.8477 2.96995 77.3551 7.22849C73.8843 3.28107 69.0873 0.986516 64.0497 0.986516C60.1368 0.986516 56.3859 2.33311 53.1953 4.88532C44.8969 11.5405 43.0149 24.4522 49.0067 33.6742L57.2963 46.4304C57.2963 46.4304 57.2963 46.4401 57.3007 46.4401L68.4746 63.6444C65.9711 66.2939 63.3056 68.7683 60.5964 71.1358C59.3928 72.1323 58.1323 72.9928 56.7798 73.7026C53.9218 74.9033 50.9237 75.7395 47.9081 76.2694C44.9713 76.6242 42.0126 76.6631 39.0802 76.3228C36.4322 75.8367 33.8411 75.0346 31.342 73.9553C28.6678 72.6088 26.1293 70.951 23.7571 69.0211C21.3848 66.8821 19.2227 64.4854 17.2969 61.8555C16.3428 60.4116 15.4499 58.9143 14.6446 57.3587C13.6598 55.4579 11.8347 53.9169 9.93519 53.3384C8.88914 52.9738 7.83872 52.9203 6.79267 53.1828C5.74224 53.2363 4.76622 53.5814 3.8646 54.2231C2.18392 55.4288 0.700192 57.2226 0.245007 59.4539C-0.227685 61.7582 -0.0438604 64.1111 1.0372 66.1966C2.58658 69.1815 4.44671 71.9573 6.42502 74.6116C8.00941 76.7409 9.76012 78.7195 11.6509 80.5182C13.9925 82.7495 16.496 84.8496 19.1483 86.6143C21.8094 88.3838 24.6587 89.7936 27.5517 91.0138C29.867 91.9861 32.2611 92.7202 34.699 93.1771C38.2573 93.8431 41.8463 94.2223 45.4527 94.0084C49.1424 93.7896 52.8626 93.1771 56.4428 92.1514C57.8872 91.7382 59.3184 91.252 60.7233 90.6881C62.7191 89.886 64.7412 88.9915 66.5663 87.7762C68.4921 86.4879 70.2341 84.8642 71.9716 83.2891C73.2715 82.1127 74.5671 80.9314 75.8451 79.7258C76.4228 79.1813 76.9962 78.6271 77.5652 78.0729C77.8321 78.3306 78.0947 78.5979 78.3617 78.8507C81.0885 81.4661 83.8809 84.0329 86.7695 86.4247C89.6582 88.8165 93.094 90.2992 96.5166 91.4708C100.075 92.691 103.734 93.3764 107.432 93.814C110.487 94.1737 113.577 94.1786 116.628 93.7702C119.775 93.3473 122.856 92.7834 125.876 91.6895C128.808 90.6249 131.697 89.254 134.411 87.6206C137.151 85.9726 139.632 83.9503 142.074 81.8113C144.245 79.9105 146.254 77.7812 148.066 75.4624C150.307 72.5893 152.386 69.4975 154.097 66.2015C155.122 64.2278 155.437 61.661 154.89 59.4588L154.898 59.4345ZM61.1347 17.097C61.997 16.4067 63.0036 16.0421 64.0497 16.0421C65.6822 16.0421 67.1616 16.8831 68.1157 18.3464L71.8885 24.1557C71.8885 24.1557 71.9016 24.1703 71.906 24.18C72.0023 24.3258 72.1073 24.4668 72.2167 24.6078C72.2605 24.6661 72.2999 24.7245 72.3437 24.778C72.4224 24.8752 72.5056 24.9627 72.5888 25.0551C72.6719 25.1474 72.7507 25.2446 72.8382 25.3273C72.8864 25.3759 72.9389 25.4197 72.9914 25.4683C73.1184 25.5898 73.2453 25.7065 73.3766 25.8134C73.3853 25.8183 73.3897 25.828 73.3985 25.8329C73.4379 25.862 73.4773 25.8912 73.5166 25.9204C73.6567 26.0273 73.7924 26.1294 73.9368 26.2266C74.0068 26.2752 74.0812 26.3141 74.1556 26.3579C74.2738 26.4308 74.392 26.5037 74.5145 26.5669C74.6152 26.6204 74.7159 26.6642 74.8165 26.7079C74.9128 26.7517 75.0135 26.8003 75.1142 26.8392C75.2323 26.8878 75.3549 26.9267 75.4731 26.9656C75.5606 26.9947 75.6481 27.0239 75.7357 27.0482C75.8626 27.0822 75.9851 27.1114 76.1121 27.1357C76.1996 27.1552 76.2915 27.1746 76.3791 27.1892C76.4972 27.2086 76.6198 27.2232 76.738 27.2329C76.8386 27.2427 76.9393 27.2572 77.0399 27.2621C77.145 27.267 77.25 27.267 77.3595 27.267C77.4776 27.267 77.5914 27.267 77.7096 27.2621C77.8015 27.2572 77.8934 27.2475 77.981 27.2378C78.1123 27.2232 78.2392 27.2135 78.3705 27.1892C78.4493 27.1746 78.5281 27.16 78.6112 27.1406C78.7469 27.1114 78.8826 27.0822 79.0182 27.0482C79.097 27.0288 79.1758 26.9996 79.2546 26.9753C79.3859 26.9364 79.5128 26.8926 79.6398 26.844C79.7317 26.81 79.8192 26.7662 79.9111 26.7274C80.0205 26.6787 80.13 26.6301 80.2394 26.5767C80.3532 26.5183 80.467 26.4503 80.5808 26.3822C80.6595 26.3336 80.7427 26.2898 80.8215 26.2412C80.9615 26.1489 81.0972 26.0468 81.2329 25.9447C81.2767 25.9106 81.3204 25.8863 81.3642 25.8523C81.373 25.8474 81.3773 25.8377 81.3861 25.8329C81.5174 25.7259 81.6399 25.6092 81.7669 25.4926C81.8194 25.444 81.8763 25.3953 81.9288 25.3467C82.0163 25.2592 82.0951 25.1669 82.1783 25.0745C82.2614 24.9821 82.349 24.8946 82.4278 24.7974C82.4715 24.7439 82.5153 24.6807 82.5591 24.6224C82.6641 24.4814 82.7692 24.3453 82.8654 24.1995C82.8698 24.1897 82.8786 24.1849 82.8829 24.1751L87.0496 17.8116C87.9994 16.3581 89.4788 15.5268 91.0982 15.5268C92.153 15.5268 93.1684 15.8963 94.0306 16.5914C95.1117 17.4616 95.8207 18.7499 96.0264 20.2131C96.2365 21.6764 95.917 23.1445 95.1335 24.3404L77.3419 51.5056L60.0187 24.8363C58.4036 22.3521 58.9113 18.8763 61.1391 17.0873L61.1347 17.097Z" fill="#FFF8EB"/>
</svg>
