<svg width="139" height="71" viewBox="0 0 139 71" fill="none" xmlns="http://www.w3.org/2000/svg">
<path d="M138 44.9884C137.782 44.1367 137.365 43.3943 136.745 42.761C136.25 42.0477 135.595 41.4872 134.776 41.0723C133.146 40.2679 131.173 39.8676 129.367 40.4135C127.632 40.9376 126.104 41.9203 125.172 43.4234C124.454 44.5844 123.663 45.7017 122.813 46.7827C121.093 48.7553 119.163 50.5532 117.049 52.1546C114.94 53.5995 112.678 54.8405 110.296 55.8487C108.089 56.653 105.804 57.2499 103.468 57.6138C100.828 57.8723 98.169 57.8504 95.533 57.5847C92.8503 57.188 90.1754 56.5657 87.633 55.6667C86.4359 55.139 85.3168 54.4984 84.2523 53.756C81.7412 51.9071 79.2612 49.9782 76.9528 47.9036L86.7635 35.3182L94.5231 25.3641C97.1201 22.0303 98.1729 17.9505 97.4866 13.8778C96.7964 9.80523 94.449 6.22395 90.8773 3.80003C88.0308 1.86745 84.6696 0.848389 81.1563 0.848389C76.4849 0.848389 72.028 2.71546 68.9163 5.90367C65.8242 2.94839 61.5505 1.23054 57.0624 1.23054C53.5765 1.23054 50.2347 2.23868 47.3921 4.14943C39.999 9.13192 38.3223 18.7985 43.6605 25.7026L51.0458 35.2527C51.0458 35.2527 51.0458 35.26 51.0497 35.26L61.0046 48.1402C58.7742 50.1237 56.3996 51.9762 53.9859 53.7487C52.9136 54.4948 51.7906 55.139 50.5857 55.6703C48.0394 56.5693 45.3684 57.1953 42.6818 57.592C40.0653 57.8577 37.4294 57.8868 34.8169 57.632C32.4578 57.2681 30.1494 56.6676 27.9229 55.8596C25.5404 54.8515 23.2788 53.6104 21.1654 52.1655C19.052 50.5641 17.1257 48.7698 15.41 46.8009C14.5599 45.7199 13.7645 44.599 13.047 43.4343C12.1697 42.0113 10.5437 40.8575 8.85135 40.4244C7.91942 40.1515 6.98358 40.1114 6.05165 40.308C5.11581 40.348 4.24627 40.6064 3.44301 41.0868C1.94567 41.9894 0.623807 43.3324 0.218279 45.0029C-0.202847 46.7281 -0.0390756 48.4896 0.924054 50.0509C2.30441 52.2856 3.96162 54.3638 5.72411 56.3509C7.13566 57.945 8.69538 59.4263 10.3799 60.7729C12.466 62.4435 14.6964 64.0157 17.0594 65.3369C19.4302 66.6617 21.9686 67.7171 24.5461 68.6306C26.6088 69.3585 28.7417 69.9081 30.9137 70.2502C34.0838 70.7488 37.2812 71.0327 40.4943 70.8726C43.7814 70.7088 47.0958 70.2502 50.2854 69.4823C51.5722 69.1729 52.8473 68.809 54.099 68.3868C55.877 67.7863 57.6785 67.1166 59.3045 66.2067C61.0202 65.2423 62.5722 64.0267 64.1202 62.8475C65.2783 61.9667 66.4325 61.0823 67.5711 60.1797C68.0858 59.7721 68.5966 59.3572 69.1035 58.9423C69.3414 59.1352 69.5753 59.3353 69.8132 59.5246C72.2425 61.4826 74.7302 63.4043 77.3038 65.1949C79.8773 66.9856 82.9383 68.0956 85.9875 68.9728C89.1577 69.8863 92.4175 70.3994 95.7124 70.727C98.4341 70.9963 101.187 71 103.905 70.6942C106.708 70.3776 109.454 69.9554 112.144 69.1365C114.757 68.3395 117.33 67.3131 119.748 66.0903C122.189 64.8565 124.4 63.3424 126.575 61.741C128.51 60.318 130.299 58.7239 131.914 56.9878C133.91 54.8369 135.762 52.5222 137.287 50.0546C138.199 48.5769 138.48 46.6553 137.993 45.0066L138 44.9884ZM54.4655 13.2919C55.2337 12.7751 56.1305 12.5021 57.0624 12.5021C58.5169 12.5021 59.8348 13.1317 60.6849 14.2272L64.0461 18.5764C64.0461 18.5764 64.0578 18.5874 64.0617 18.5946C64.1475 18.7038 64.2411 18.8094 64.3386 18.9149C64.3775 18.9586 64.4126 19.0023 64.4516 19.0423C64.5218 19.1151 64.5959 19.1806 64.67 19.2498C64.7441 19.3189 64.8143 19.3917 64.8923 19.4536C64.9351 19.49 64.9819 19.5227 65.0287 19.5591C65.1418 19.6501 65.2549 19.7375 65.3719 19.8175C65.3797 19.8212 65.3836 19.8284 65.3914 19.8321C65.4265 19.8539 65.4616 19.8758 65.4966 19.8976C65.6214 19.9777 65.7423 20.0541 65.871 20.1269C65.9334 20.1633 65.9997 20.1924 66.0659 20.2251C66.1712 20.2797 66.2765 20.3343 66.3857 20.3816C66.4754 20.4217 66.5651 20.4544 66.6547 20.4872C66.7405 20.5199 66.8302 20.5563 66.9199 20.5855C67.0252 20.6219 67.1344 20.651 67.2396 20.6801C67.3176 20.7019 67.3956 20.7238 67.4736 20.742C67.5867 20.7674 67.6959 20.7893 67.8089 20.8075C67.8869 20.822 67.9688 20.8366 68.0468 20.8475C68.1521 20.8621 68.2613 20.873 68.3665 20.8803C68.4562 20.8875 68.5459 20.8985 68.6356 20.9021C68.7292 20.9057 68.8228 20.9057 68.9202 20.9057C69.0255 20.9057 69.1269 20.9057 69.2322 20.9021C69.3141 20.8985 69.396 20.8912 69.4739 20.8839C69.5909 20.873 69.704 20.8657 69.821 20.8475C69.8912 20.8366 69.9614 20.8257 70.0354 20.8111C70.1563 20.7893 70.2772 20.7674 70.3981 20.742C70.4683 20.7274 70.5385 20.7056 70.6086 20.6874C70.7256 20.6582 70.8387 20.6255 70.9518 20.5891C71.0337 20.5636 71.1117 20.5309 71.1935 20.5017C71.291 20.4654 71.3885 20.429 71.486 20.3889C71.5874 20.3453 71.6888 20.2943 71.7901 20.2433C71.8603 20.2069 71.9344 20.1742 72.0046 20.1378C72.1294 20.0686 72.2502 19.9922 72.3711 19.9158C72.4101 19.8903 72.4491 19.8721 72.4881 19.8466C72.4959 19.843 72.4998 19.8357 72.5076 19.8321C72.6246 19.752 72.7338 19.6647 72.8468 19.5773C72.8936 19.5409 72.9443 19.5045 72.9911 19.4681C73.0691 19.4026 73.1393 19.3335 73.2134 19.2643C73.2875 19.1952 73.3655 19.1297 73.4356 19.0569C73.4746 19.0168 73.5136 18.9695 73.5526 18.9258C73.6462 18.8203 73.7398 18.7184 73.8256 18.6092C73.8295 18.6019 73.8373 18.5983 73.8412 18.591L77.5533 13.8269C78.3995 12.7387 79.7174 12.1163 81.1602 12.1163C82.0999 12.1163 83.0046 12.3929 83.7727 12.9134C84.7358 13.5648 85.3675 14.5293 85.5508 15.6248C85.738 16.7203 85.4533 17.8194 84.7553 18.7147L68.9046 39.0523L53.4712 19.086C52.0323 17.2262 52.4846 14.6239 54.4694 13.2846L54.4655 13.2919Z" fill="#0A2864"/>
</svg>
