<svg width="21" height="20" viewBox="0 0 21 20" fill="none" xmlns="http://www.w3.org/2000/svg">
<path d="M19.4711 8.81622L4.97461 0.489749C4.70428 0.33448 4.38336 0.211313 4.03017 0.127282C3.67697 0.0432509 3.29841 0 2.91611 0C2.14402 0 1.40356 0.176168 0.857608 0.489749C0.587281 0.645019 0.372847 0.829351 0.226547 1.03222C0.0802478 1.23509 0.00495038 1.45252 0.00495038 1.67211C0.00495038 2.11558 0.311659 2.54089 0.857608 2.85447L13.3246 9.99858L0.857608 17.1427C0.585861 17.2975 0.370171 17.4817 0.222977 17.6846C0.0757837 17.8875 0 18.1052 0 18.3251C0 18.5449 0.0757837 18.7626 0.222977 18.9655C0.370171 19.1684 0.585861 19.3526 0.857608 19.5074C1.12714 19.6635 1.4478 19.7874 1.80111 19.8719C2.15441 19.9565 2.53337 20 2.91611 20C3.29885 20 3.67781 19.9565 4.03111 19.8719C4.38442 19.7874 4.70508 19.6635 4.97461 19.5074L19.4711 11.1809C19.7429 11.0261 19.9585 10.8419 20.1057 10.639C20.2529 10.4361 20.3287 10.2184 20.3287 9.99858C20.3287 9.77874 20.2529 9.56108 20.1057 9.35815C19.9585 9.15521 19.7429 8.97103 19.4711 8.81622Z" fill="#FFF8EB"/>
</svg>
