<svg width="139" height="80" viewBox="0 0 139 80" fill="none" xmlns="http://www.w3.org/2000/svg">
<path d="M138 50.1121C137.782 49.154 137.365 48.3187 136.745 47.6063C136.25 46.8038 135.595 46.1732 134.776 45.7065C133.146 44.8016 131.173 44.3512 129.367 44.9654C127.632 45.555 126.104 46.6605 125.172 48.3515C124.454 49.6576 123.663 50.9146 122.813 52.1306C121.093 54.3498 119.163 56.3725 117.049 58.1741C114.94 59.7996 112.678 61.1958 110.296 62.3299C108.089 63.2348 105.804 63.9063 103.468 64.3157C100.828 64.6064 98.169 64.5819 95.533 64.283C92.8503 63.8367 90.1754 63.1365 87.633 62.1252C86.4359 61.5315 85.3168 60.8109 84.2523 59.9756C81.7412 57.8956 79.2612 55.7256 76.9528 53.3917L86.7635 39.2331L94.5231 28.0348C97.1201 24.2843 98.1729 19.6944 97.4866 15.1127C96.7964 10.531 94.449 6.50209 90.8773 3.77519C88.0308 1.60104 84.6696 0.45459 81.1563 0.45459C76.4849 0.45459 72.028 2.55504 68.9163 6.14178C65.8242 2.81709 61.5505 0.884507 57.0624 0.884507C53.5765 0.884507 50.2347 2.01867 47.3921 4.16826C39.999 9.77356 38.3223 20.6484 43.6605 28.4156L51.0458 39.1594C51.0458 39.1594 51.0458 39.1676 51.0497 39.1676L61.0046 53.6579C58.7742 55.8894 56.3996 57.9734 53.9859 59.9674C52.9136 60.8068 51.7906 61.5315 50.5857 62.1293C48.0394 63.1406 45.3684 63.8449 42.6818 64.2912C40.0653 64.5901 37.4294 64.6228 34.8169 64.3362C32.4578 63.9268 30.1494 63.2512 27.9229 62.3422C25.5404 61.208 23.2788 59.8118 21.1654 58.1863C19.052 56.3848 17.1257 54.3662 15.41 52.1511C14.5599 50.9351 13.7645 49.674 13.047 48.3638C12.1697 46.7628 10.5437 45.4649 8.85135 44.9776C7.91942 44.6706 6.98358 44.6255 6.05165 44.8466C5.11581 44.8917 4.24627 45.1824 3.44301 45.7228C1.94567 46.7383 0.623807 48.2491 0.218279 50.1285C-0.202847 52.0692 -0.0390756 54.0509 0.924054 55.8075C2.30441 58.3215 3.96162 60.6594 5.72411 62.895C7.13566 64.6883 8.69538 66.3548 10.3799 67.8697C12.466 69.7491 14.6964 71.5179 17.0594 73.0042C19.4302 74.4945 21.9686 75.6819 24.5461 76.7096C26.6088 77.5285 28.7417 78.1468 30.9137 78.5317C34.0838 79.0926 37.2812 79.412 40.4943 79.2318C43.7814 79.0476 47.0958 78.5317 50.2854 77.6677C51.5722 77.3197 52.8473 76.9103 54.099 76.4353C55.877 75.7597 57.6785 75.0063 59.3045 73.9827C61.0202 72.8977 62.5722 71.5302 64.1202 70.2036C65.2783 69.2127 66.4325 68.2177 67.5711 67.2023C68.0858 66.7437 68.5966 66.277 69.1035 65.8102C69.3414 66.0272 69.5753 66.2524 69.8132 66.4653C72.2425 68.6681 74.7302 70.83 77.3038 72.8445C79.8773 74.8589 82.9383 76.1078 85.9875 77.0945C89.1577 78.1222 92.4175 78.6995 95.7124 79.068C98.4341 79.371 101.187 79.3751 103.905 79.0312C106.708 78.675 109.454 78.2 112.144 77.2788C114.757 76.3821 117.33 75.2274 119.748 73.8517C122.189 72.4637 124.4 70.7604 126.575 68.9588C128.51 67.3579 130.299 65.5645 131.914 63.6115C133.91 61.1917 135.762 58.5876 137.287 55.8116C138.199 54.1492 138.48 51.9873 137.993 50.1326L138 50.1121ZM54.4655 14.4535C55.2337 13.8721 56.1305 13.565 57.0624 13.565C58.5169 13.565 59.8348 14.2734 60.6849 15.5058L64.0461 20.3987C64.0461 20.3987 64.0578 20.4109 64.0617 20.4191C64.1475 20.542 64.2411 20.6607 64.3386 20.7794C64.3775 20.8286 64.4126 20.8777 64.4516 20.9227C64.5218 21.0046 64.5959 21.0783 64.67 21.1561C64.7441 21.2339 64.8143 21.3158 64.8923 21.3854C64.9351 21.4264 64.9819 21.4632 65.0287 21.5042C65.1418 21.6065 65.2549 21.7048 65.3719 21.7949C65.3797 21.799 65.3836 21.8071 65.3914 21.8112C65.4265 21.8358 65.4616 21.8604 65.4966 21.8849C65.6214 21.975 65.7423 22.061 65.871 22.1429C65.9334 22.1838 65.9997 22.2166 66.0659 22.2534C66.1712 22.3149 66.2765 22.3763 66.3857 22.4295C66.4754 22.4745 66.5651 22.5114 66.6547 22.5482C66.7405 22.5851 66.8302 22.626 66.9199 22.6588C67.0252 22.6997 67.1344 22.7325 67.2396 22.7653C67.3176 22.7898 67.3956 22.8144 67.4736 22.8349C67.5867 22.8635 67.6959 22.8881 67.8089 22.9086C67.8869 22.9249 67.9688 22.9413 68.0468 22.9536C68.1521 22.97 68.2613 22.9823 68.3665 22.9904C68.4562 22.9986 68.5459 23.0109 68.6356 23.015C68.7292 23.0191 68.8228 23.0191 68.9202 23.0191C69.0255 23.0191 69.1269 23.0191 69.2322 23.015C69.3141 23.0109 69.396 23.0027 69.4739 22.9945C69.5909 22.9823 69.704 22.9741 69.821 22.9536C69.8912 22.9413 69.9614 22.929 70.0354 22.9127C70.1563 22.8881 70.2772 22.8635 70.3981 22.8349C70.4683 22.8185 70.5385 22.7939 70.6086 22.7734C70.7256 22.7407 70.8387 22.7038 70.9518 22.6629C71.0337 22.6342 71.1117 22.5974 71.1935 22.5646C71.291 22.5237 71.3885 22.4827 71.486 22.4377C71.5874 22.3886 71.6888 22.3312 71.7901 22.2739C71.8603 22.233 71.9344 22.1961 72.0046 22.1552C72.1294 22.0774 72.2502 21.9914 72.3711 21.9054C72.4101 21.8768 72.4491 21.8563 72.4881 21.8276C72.4959 21.8235 72.4998 21.8153 72.5076 21.8112C72.6246 21.7212 72.7338 21.6229 72.8468 21.5246C72.8936 21.4837 72.9443 21.4427 72.9911 21.4018C73.0691 21.3281 73.1393 21.2503 73.2134 21.1725C73.2875 21.0947 73.3655 21.021 73.4356 20.9391C73.4746 20.8941 73.5136 20.8409 73.5526 20.7917C73.6462 20.673 73.7398 20.5583 73.8256 20.4355C73.8295 20.4273 73.8373 20.4232 73.8412 20.415L77.5533 15.0554C78.3995 13.8312 79.7174 13.131 81.1602 13.131C82.0999 13.131 83.0046 13.4422 83.7727 14.0277C84.7358 14.7606 85.3675 15.8456 85.5508 17.0781C85.738 18.3105 85.4533 19.547 84.7553 20.5542L68.9046 43.434L53.4712 20.9719C52.0323 18.8796 52.4846 15.9521 54.4694 14.4453L54.4655 14.4535Z" fill="#0A2864"/>
</svg>
