<svg width="60" height="43" viewBox="0 0 60 43" fill="none" xmlns="http://www.w3.org/2000/svg">
<path d="M40.8042 32.9424C35.7216 35.8131 29.3265 37.1665 22.9208 36.7271C16.5151 36.2878 10.5802 34.0887 6.32429 30.5775C2.06834 27.0664 -0.188777 22.5071 0.0123765 17.8276C0.21353 13.1482 2.85784 8.70042 7.40704 5.38966C11.957 2.07948 18.0696 0.155373 24.5006 0.00900564C30.9316 -0.137362 37.1975 1.50501 42.0229 4.60181C46.8483 7.69861 49.8705 12.0171 50.4743 16.6781C51.0781 21.3392 49.2181 25.9925 45.2729 29.6908L58.0888 39.0162C58.505 39.2974 58.8093 39.6551 58.9695 40.0515C59.1298 40.448 59.1401 40.8686 58.9994 41.269C58.8587 41.6694 58.5722 42.0347 58.1701 42.3266C57.768 42.6184 57.2651 42.826 56.7145 42.9273C56.1649 43.0298 55.5874 43.0227 55.0429 42.9066C54.4984 42.7905 54.0069 42.5699 53.6201 42.2678L40.8042 32.9424ZM44.2612 18.4022C44.2986 16.5727 43.8358 14.7561 42.8996 13.058C41.9633 11.3599 40.5724 9.81415 38.8077 8.51076C37.0429 7.20738 34.9396 6.17234 32.6201 5.46586C30.3006 4.75937 27.8111 4.39555 25.2966 4.39555C22.7821 4.39555 20.2926 4.75937 17.9731 5.46586C15.6536 6.17234 13.5503 7.20738 11.7855 8.51076C10.0208 9.81415 8.62984 11.3599 7.6936 13.058C6.75737 14.7561 6.29453 16.5727 6.33202 18.4022C6.40628 22.0264 8.437 25.4839 11.9855 28.0277C15.5339 30.5715 20.3153 31.9974 25.2966 31.9974C30.2779 31.9974 35.0592 30.5715 38.6077 28.0277C42.1562 25.4839 44.1869 22.0264 44.2612 18.4022Z" fill="#0A2864"/>
</svg>
