<svg width="21" height="20" viewBox="0 0 21 20" fill="none" xmlns="http://www.w3.org/2000/svg">
<path d="M0.85751 8.81622L15.354 0.489749C15.6243 0.33448 15.9452 0.211313 16.2984 0.127282C16.6516 0.0432509 17.0302 0 17.4125 0C18.1846 0 18.9251 0.176168 19.471 0.489749C19.7413 0.645019 19.9558 0.829351 20.1021 1.03222C20.2484 1.23509 20.3237 1.45252 20.3237 1.67211C20.3237 2.11558 20.017 2.54089 19.471 2.85447L7.00402 9.99858L19.471 17.1427C19.7428 17.2975 19.9584 17.4817 20.1056 17.6846C20.2528 17.8875 20.3286 18.1052 20.3286 18.3251C20.3286 18.5449 20.2528 18.7626 20.1056 18.9655C19.9584 19.1684 19.7428 19.3526 19.471 19.5074C19.2015 19.6635 18.8808 19.7874 18.5275 19.8719C18.1742 19.9565 17.7952 20 17.4125 20C17.0298 20 16.6508 19.9565 16.2975 19.8719C15.9442 19.7874 15.6235 19.6635 15.354 19.5074L0.85751 11.1809C0.585763 11.0261 0.37007 10.8419 0.222876 10.639C0.0756827 10.4361 -9.78669e-05 10.2184 -9.78669e-05 9.99858C-9.78669e-05 9.77874 0.0756827 9.56108 0.222876 9.35815C0.37007 9.15521 0.585763 8.97103 0.85751 8.81622Z" fill="#FFF8EB"/>
</svg>
